<svg width="250" height="250" viewBox="0 0 250 250" fill="none" xmlns="http://www.w3.org/2000/svg">
<g clip-path="url(#clip0_1255_27)">
<path d="M108.451 104.802L107.034 103.39L92.7576 89.1646L91.3408 87.7529L92.7525 86.3361L103.435 75.6148C108.31 70.7224 110.645 66.1078 110.893 61.7632L110.894 61.7497L110.895 61.7361C111.205 57.3417 109.55 53.212 105.598 49.2742C101.633 45.3237 97.5216 43.6512 93.1999 43.9132C88.8624 44.1762 84.2195 46.5586 79.2649 51.531L65.4805 65.365L64.0689 66.7817L62.6521 65.3701L48.0434 50.8137L46.6267 49.4021L48.0383 47.9853L62.8152 33.1552C69.4492 26.4974 76.4621 21.805 83.8638 19.1686L84.5165 21.0011L83.8638 19.1686C91.26 16.5341 98.5716 16.0401 105.751 17.7407C113.022 19.3716 119.647 23.2208 125.624 29.1759C131.604 35.1342 135.478 41.7498 137.133 49.0199L137.135 49.0277L137.137 49.0356C138.552 55.4903 138.222 62.0272 136.184 68.6132L175.29 76.4866L175.317 76.4921L175.344 76.4984L202.809 82.8289L202.821 82.8317L202.832 82.8346L202.359 84.7778C202.832 82.8346 202.833 82.8347 202.833 82.8348L202.835 82.8351L202.839 82.8362L202.854 82.8398L202.906 82.8528C202.924 82.8572 202.945 82.8625 202.969 82.8686C203.006 82.8778 203.05 82.889 203.101 82.902C203.269 82.9452 203.515 83.009 203.828 83.0935C204.454 83.2624 205.354 83.5139 206.457 83.8475C208.661 84.514 211.691 85.5114 214.992 86.8359C221.498 89.4459 229.432 93.4688 233.968 98.9897C236.992 102.671 239.089 105.986 240.609 109.605C242.124 113.213 243.03 117.037 243.758 121.682C245.309 131.562 243.891 137.635 241.155 146.902C239.06 153.998 234.112 161.874 229.814 167.861C227.645 170.881 225.604 173.472 224.105 175.308C223.355 176.226 222.74 176.958 222.31 177.461C222.095 177.713 221.927 177.907 221.811 178.04C221.754 178.107 221.709 178.158 221.678 178.193L221.643 178.233L221.633 178.244L221.631 178.247L221.63 178.248C221.63 178.248 221.629 178.248 220.132 176.923L221.629 178.248L220.223 179.837L218.72 178.339L202.638 162.315L201.157 160.84L108.451 104.802ZM108.451 104.802L109.863 103.385L121.551 91.6543L156.293 98.6664L156.304 98.6687L189.244 105.703L189.349 105.725L189.455 105.736L189.455 105.736L108.451 104.802Z" stroke="white" stroke-width="4"/>
<path d="M105.344 105.086L130.383 130.036L113.401 147.079L32.4721 66.4405L7.06329 47.3258C7.06329 47.3258 9.69913 36.38 14.5058 31.556C19.3124 26.7321 30.2487 24.057 30.2487 24.057L49.4545 49.397M105.344 105.086C105.344 105.086 55.2094 55.1313 49.4545 49.397M105.344 105.086L49.4545 49.397" stroke="white" stroke-width="7"/>
<path d="M190.263 143.483L188.846 142.072L187.435 143.488L171.886 159.093L170.474 160.51L171.891 161.922L193.736 183.689C192.074 189.005 189.101 193.832 184.771 198.178C180.36 202.605 175.512 205.509 170.223 206.964C164.845 208.351 159.438 208.26 153.963 206.68C148.571 205.028 143.58 201.95 138.989 197.376C134.322 192.725 131.191 187.708 129.522 182.325C127.922 176.858 127.849 171.494 129.285 166.192C130.719 160.897 133.641 155.996 138.134 151.487C145.213 144.383 153.884 141.137 164.31 141.748L166.399 141.871L166.427 139.779L166.72 118.236L166.745 116.403L164.921 116.219C156.716 115.39 148.701 116.519 140.903 119.593C133.108 122.667 125.893 127.559 119.256 134.221C111.318 142.186 105.916 151.178 103.107 161.188C100.299 171.047 100.28 180.958 103.045 190.877C105.741 200.741 111.07 209.609 118.963 217.475C126.858 225.341 135.781 230.672 145.723 233.406L145.733 233.409C155.588 236.064 165.491 236.006 175.403 233.242L175.412 233.24L175.421 233.237C185.27 230.393 194.094 225.034 201.885 217.215C207.403 211.678 211.97 205.348 215.585 198.237C219.208 191.111 221.444 183.843 222.27 176.44L222.377 175.482L221.694 174.801L190.263 143.483Z" stroke="white" stroke-width="4"/>
<path d="M108.447 101.973L94.1702 87.7478L79.1175 75.8506L64.0648 63.9533L49.4561 49.397L64.2329 34.5669C70.7024 28.0742 77.4701 23.5694 84.5359 21.0526C91.6017 18.5359 98.5239 18.0815 105.303 19.6896C112.155 21.224 118.458 24.8583 124.213 30.5926C129.968 36.3269 133.625 42.6174 135.184 49.464C136.669 56.237 136.129 63.1242 133.564 70.1255L174.896 78.4473L202.36 84.7778C202.36 84.7778 224.041 90.0554 232.423 100.259C238.289 107.4 240.351 112.863 241.784 121.992C243.265 131.435 241.944 137.168 239.238 146.335C235.25 159.843 220.133 176.923 220.133 176.923L204.051 160.898C204.051 160.898 217.394 148.638 219.545 138.085C221.293 129.507 221.53 123.262 216.916 115.823C210.78 105.93 189.662 103.747 189.662 103.747L156.701 96.7082L120.894 89.4812L108.447 101.973ZM104.853 77.0265C109.926 71.9355 112.605 66.8858 112.891 61.8771C113.25 56.7946 111.29 52.1214 107.01 47.8574C102.731 43.5935 98.0875 41.6133 93.0799 41.9169C88.0722 42.2205 82.9953 44.9546 77.8492 50.1193L64.0648 63.9533L79.1175 75.8506L94.1702 87.7478L104.853 77.0265Z" fill="var(--colour__teal)"/>
<path d="M108.447 101.973L94.1702 87.7478L79.1175 75.8506L64.0648 63.9533L49.4561 49.397L64.2329 34.5669C70.7024 28.0742 77.4701 23.5694 84.5359 21.0526C91.6017 18.5359 98.5239 18.0815 105.303 19.6896C112.155 21.224 118.458 24.8583 124.213 30.5926C129.968 36.3269 133.625 42.6174 135.184 49.464C136.669 56.237 136.129 63.1242 133.564 70.1255L174.896 78.4473L202.36 84.7778C202.36 84.7778 224.041 90.0554 232.423 100.259C238.289 107.4 240.351 112.863 241.784 121.992C243.265 131.435 241.944 137.168 239.238 146.335C235.25 159.843 220.133 176.923 220.133 176.923L204.051 160.898C204.051 160.898 217.394 148.638 219.545 138.085C221.293 129.507 221.53 123.262 216.916 115.823C210.78 105.93 189.662 103.747 189.662 103.747L156.701 96.7082L120.894 89.4812L108.447 101.973ZM104.853 77.0265C109.926 71.9355 112.605 66.8858 112.891 61.8771C113.25 56.7946 111.29 52.1214 107.01 47.8574C102.731 43.5935 98.0875 41.6133 93.0799 41.9169C88.0722 42.2205 82.9953 44.9546 77.8492 50.1193L64.0648 63.9533L79.1175 75.8506L94.1702 87.7478L104.853 77.0265Z" fill="var(--colour__teal)"/>
<path d="M105.344 105.086L130.383 130.036L113.401 147.079L32.4721 66.4405L7.06329 47.3258C7.06329 47.3258 9.69913 36.38 14.5058 31.556C19.3124 26.7321 30.2487 24.057 30.2487 24.057L49.4545 49.397C55.2094 55.1313 105.344 105.086 105.344 105.086Z" fill="#E9B093"/>
<path d="M105.344 105.086L130.383 130.036L113.401 147.079L32.4721 66.4405L7.06329 47.3258C7.06329 47.3258 9.69913 36.38 14.5058 31.556C19.3124 26.7321 30.2487 24.057 30.2487 24.057L49.4545 49.397C55.2094 55.1313 105.344 105.086 105.344 105.086Z" fill="#E9B093"/>
<path d="M188.852 144.9L220.283 176.218C219.486 183.364 217.326 190.401 213.803 197.33C210.28 204.26 205.836 210.417 200.469 215.803C192.897 223.403 184.363 228.574 174.867 231.316C165.297 233.984 155.76 234.038 146.254 231.478C136.675 228.844 128.049 223.704 120.376 216.058C112.703 208.412 107.568 199.841 104.974 190.345C102.305 180.775 102.325 171.238 105.033 161.732C107.74 152.079 112.954 143.379 120.673 135.632C127.143 129.139 134.131 124.413 141.638 121.454C149.145 118.494 156.839 117.413 164.721 118.209L164.428 139.752C153.453 139.109 144.217 142.55 136.718 150.075C132.013 154.797 128.892 159.995 127.356 165.669C125.819 171.343 125.903 177.087 127.608 182.903C129.385 188.644 132.709 193.941 137.579 198.793C142.375 203.572 147.646 206.839 153.394 208.597C159.215 210.28 164.997 210.38 170.739 208.897C176.407 207.34 181.557 204.238 186.189 199.589C191.041 194.72 194.308 189.227 195.991 183.111L173.304 160.505L188.852 144.9Z" fill="#E16472"/>
<rect x="180.843" y="214.278" width="23.435" height="8.78814" transform="rotate(-45.1029 180.843 214.278)" fill="#E9B093"/>
<circle cx="15.8693" cy="47.8275" r="2.92938" transform="rotate(-45.1029 15.8693 47.8275)" fill="#D9D9D9"/>
<circle cx="24.1662" cy="54.0267" r="2.92938" transform="rotate(-45.1029 24.1662 54.0267)" fill="#D9D9D9"/>
<circle cx="32.4621" cy="60.226" r="2.92938" transform="rotate(-45.1029 32.4621 60.226)" fill="#D9D9D9"/>
<circle cx="2.92938" cy="2.92938" r="2.92938" transform="matrix(-0.705836 0.708376 0.708376 0.705836 30.3359 29.1592)" fill="#D9D9D9"/>
<circle cx="2.92938" cy="2.92938" r="2.92938" transform="matrix(-0.705836 0.708376 0.708376 0.705836 36.5635 37.4341)" fill="#D9D9D9"/>
<circle cx="2.92938" cy="2.92938" r="2.92938" transform="matrix(-0.705836 0.708376 0.708376 0.705836 42.793 45.7085)" fill="#D9D9D9"/>
<path d="M188.096 215.301L36.6133 64.3613" stroke="#33363D"/>
<path d="M198.433 204.926L46.9502 53.9863" stroke="#33363D"/>
<path d="M190.162 213.226L38.6797 62.2871" stroke="#33363D"/>
<path d="M192.229 211.151L40.7471 60.2119" stroke="#33363D"/>
<path d="M194.298 209.075L42.8154 58.1362" stroke="#33363D"/>
<path d="M196.364 207.001L44.8818 56.0615" stroke="#33363D"/>
</g>
<defs>
<clipPath id="clip0_1255_27">
<rect width="250" height="250" fill="white"/>
</clipPath>
</defs>
</svg>
