<?xml version="1.0" encoding="UTF-8" standalone="no"?>
<svg version="1.1" xmlns="http://www.w3.org/2000/svg" xmlns:xlink="http://www.w3.org/1999/xlink" width="191.981" height="191.981">
	<path id="dp_path001" fill="black" fill-rule="evenodd" stroke="none" stroke-width="0" d="M 0,0 L 5.81733,0 L 5.81733,5.81733 L 0,5.81733 Z M 5.81733,0 L 11.6347,0 L 11.6347,5.81733 L 5.81733,5.81733 Z M 11.6347,0 L 17.4533,0 L 17.4533,5.81733 L 11.6347,5.81733 Z M 17.4533,0 L 23.2707,0 L 23.2707,5.81733 L 17.4533,5.81733 Z M 23.2707,0 L 29.088,0 L 29.088,5.81733 L 23.2707,5.81733 Z M 29.088,0 L 34.9053,0 L 34.9053,5.81733 L 29.088,5.81733 Z M 34.9053,0 L 40.7227,0 L 40.7227,5.81733 L 34.9053,5.81733 Z M 46.54,0 L 52.3587,0 L 52.3587,5.81733 L 46.54,5.81733 Z M 52.3587,0 L 58.176,0 L 58.176,5.81733 L 52.3587,5.81733 Z M 58.176,0 L 63.9933,0 L 63.9933,5.81733 L 58.176,5.81733 Z M 75.628,0 L 81.4467,0 L 81.4467,5.81733 L 75.628,5.81733 Z M 87.264,0 L 93.0813,0 L 93.0813,5.81733 L 87.264,5.81733 Z M 104.716,0 L 110.533,0 L 110.533,5.81733 L 104.716,5.81733 Z M 116.352,0 L 122.169,0 L 122.169,5.81733 L 116.352,5.81733 Z M 133.804,0 L 139.621,0 L 139.621,5.81733 L 133.804,5.81733 Z M 139.621,0 L 145.44,0 L 145.44,5.81733 L 139.621,5.81733 Z M 151.257,0 L 157.075,0 L 157.075,5.81733 L 151.257,5.81733 Z M 157.075,0 L 162.892,0 L 162.892,5.81733 L 157.075,5.81733 Z M 162.892,0 L 168.709,0 L 168.709,5.81733 L 162.892,5.81733 Z M 168.709,0 L 174.527,0 L 174.527,5.81733 L 168.709,5.81733 Z M 174.527,0 L 180.345,0 L 180.345,5.81733 L 174.527,5.81733 Z M 180.345,0 L 186.163,0 L 186.163,5.81733 L 180.345,5.81733 Z M 186.163,0 L 191.98,0 L 191.98,5.81733 L 186.163,5.81733 Z M 0,5.81733 L 5.81733,5.81733 L 5.81733,11.6347 L 0,11.6347 Z M 34.9053,5.81733 L 40.7227,5.81733 L 40.7227,11.6347 L 34.9053,11.6347 Z M 46.54,5.81733 L 52.3587,5.81733 L 52.3587,11.6347 L 46.54,11.6347 Z M 52.3587,5.81733 L 58.176,5.81733 L 58.176,11.6347 L 52.3587,11.6347 Z M 63.9933,5.81733 L 69.8107,5.81733 L 69.8107,11.6347 L 63.9933,11.6347 Z M 69.8107,5.81733 L 75.628,5.81733 L 75.628,11.6347 L 69.8107,11.6347 Z M 81.4467,5.81733 L 87.264,5.81733 L 87.264,11.6347 L 81.4467,11.6347 Z M 98.8987,5.81733 L 104.716,5.81733 L 104.716,11.6347 L 98.8987,11.6347 Z M 122.169,5.81733 L 127.987,5.81733 L 127.987,11.6347 L 122.169,11.6347 Z M 139.621,5.81733 L 145.44,5.81733 L 145.44,11.6347 L 139.621,11.6347 Z M 151.257,5.81733 L 157.075,5.81733 L 157.075,11.6347 L 151.257,11.6347 Z M 186.163,5.81733 L 191.98,5.81733 L 191.98,11.6347 L 186.163,11.6347 Z M 0,11.6347 L 5.81733,11.6347 L 5.81733,17.4533 L 0,17.4533 Z M 11.6347,11.6347 L 17.4533,11.6347 L 17.4533,17.4533 L 11.6347,17.4533 Z M 17.4533,11.6347 L 23.2707,11.6347 L 23.2707,17.4533 L 17.4533,17.4533 Z M 23.2707,11.6347 L 29.088,11.6347 L 29.088,17.4533 L 23.2707,17.4533 Z M 34.9053,11.6347 L 40.7227,11.6347 L 40.7227,17.4533 L 34.9053,17.4533 Z M 46.54,11.6347 L 52.3587,11.6347 L 52.3587,17.4533 L 46.54,17.4533 Z M 87.264,11.6347 L 93.0813,11.6347 L 93.0813,17.4533 L 87.264,17.4533 Z M 93.0813,11.6347 L 98.8987,11.6347 L 98.8987,17.4533 L 93.0813,17.4533 Z M 104.716,11.6347 L 110.533,11.6347 L 110.533,17.4533 L 104.716,17.4533 Z M 122.169,11.6347 L 127.987,11.6347 L 127.987,17.4533 L 122.169,17.4533 Z M 127.987,11.6347 L 133.804,11.6347 L 133.804,17.4533 L 127.987,17.4533 Z M 133.804,11.6347 L 139.621,11.6347 L 139.621,17.4533 L 133.804,17.4533 Z M 139.621,11.6347 L 145.44,11.6347 L 145.44,17.4533 L 139.621,17.4533 Z M 151.257,11.6347 L 157.075,11.6347 L 157.075,17.4533 L 151.257,17.4533 Z M 162.892,11.6347 L 168.709,11.6347 L 168.709,17.4533 L 162.892,17.4533 Z M 168.709,11.6347 L 174.527,11.6347 L 174.527,17.4533 L 168.709,17.4533 Z M 174.527,11.6347 L 180.345,11.6347 L 180.345,17.4533 L 174.527,17.4533 Z M 186.163,11.6347 L 191.98,11.6347 L 191.98,17.4533 L 186.163,17.4533 Z M 0,17.4533 L 5.81733,17.4533 L 5.81733,23.2707 L 0,23.2707 Z M 11.6347,17.4533 L 17.4533,17.4533 L 17.4533,23.2707 L 11.6347,23.2707 Z M 17.4533,17.4533 L 23.2707,17.4533 L 23.2707,23.2707 L 17.4533,23.2707 Z M 23.2707,17.4533 L 29.088,17.4533 L 29.088,23.2707 L 23.2707,23.2707 Z M 34.9053,17.4533 L 40.7227,17.4533 L 40.7227,23.2707 L 34.9053,23.2707 Z M 52.3587,17.4533 L 58.176,17.4533 L 58.176,23.2707 L 52.3587,23.2707 Z M 69.8107,17.4533 L 75.628,17.4533 L 75.628,23.2707 L 69.8107,23.2707 Z M 81.4467,17.4533 L 87.264,17.4533 L 87.264,23.2707 L 81.4467,23.2707 Z M 98.8987,17.4533 L 104.716,17.4533 L 104.716,23.2707 L 98.8987,23.2707 Z M 104.716,17.4533 L 110.533,17.4533 L 110.533,23.2707 L 104.716,23.2707 Z M 127.987,17.4533 L 133.804,17.4533 L 133.804,23.2707 L 127.987,23.2707 Z M 133.804,17.4533 L 139.621,17.4533 L 139.621,23.2707 L 133.804,23.2707 Z M 139.621,17.4533 L 145.44,17.4533 L 145.44,23.2707 L 139.621,23.2707 Z M 151.257,17.4533 L 157.075,17.4533 L 157.075,23.2707 L 151.257,23.2707 Z M 162.892,17.4533 L 168.709,17.4533 L 168.709,23.2707 L 162.892,23.2707 Z M 168.709,17.4533 L 174.527,17.4533 L 174.527,23.2707 L 168.709,23.2707 Z M 174.527,17.4533 L 180.345,17.4533 L 180.345,23.2707 L 174.527,23.2707 Z M 186.163,17.4533 L 191.98,17.4533 L 191.98,23.2707 L 186.163,23.2707 Z M 0,23.2707 L 5.81733,23.2707 L 5.81733,29.088 L 0,29.088 Z M 11.6347,23.2707 L 17.4533,23.2707 L 17.4533,29.088 L 11.6347,29.088 Z M 17.4533,23.2707 L 23.2707,23.2707 L 23.2707,29.088 L 17.4533,29.088 Z M 23.2707,23.2707 L 29.088,23.2707 L 29.088,29.088 L 23.2707,29.088 Z M 34.9053,23.2707 L 40.7227,23.2707 L 40.7227,29.088 L 34.9053,29.088 Z M 52.3587,23.2707 L 58.176,23.2707 L 58.176,29.088 L 52.3587,29.088 Z M 63.9933,23.2707 L 69.8107,23.2707 L 69.8107,29.088 L 63.9933,29.088 Z M 81.4467,23.2707 L 87.264,23.2707 L 87.264,29.088 L 81.4467,29.088 Z M 87.264,23.2707 L 93.0813,23.2707 L 93.0813,29.088 L 87.264,29.088 Z M 93.0813,23.2707 L 98.8987,23.2707 L 98.8987,29.088 L 93.0813,29.088 Z M 122.169,23.2707 L 127.987,23.2707 L 127.987,29.088 L 122.169,29.088 Z M 151.257,23.2707 L 157.075,23.2707 L 157.075,29.088 L 151.257,29.088 Z M 162.892,23.2707 L 168.709,23.2707 L 168.709,29.088 L 162.892,29.088 Z M 168.709,23.2707 L 174.527,23.2707 L 174.527,29.088 L 168.709,29.088 Z M 174.527,23.2707 L 180.345,23.2707 L 180.345,29.088 L 174.527,29.088 Z M 186.163,23.2707 L 191.98,23.2707 L 191.98,29.088 L 186.163,29.088 Z M 0,29.088 L 5.81733,29.088 L 5.81733,34.9053 L 0,34.9053 Z M 34.9053,29.088 L 40.7227,29.088 L 40.7227,34.9053 L 34.9053,34.9053 Z M 46.54,29.088 L 52.3587,29.088 L 52.3587,34.9053 L 46.54,34.9053 Z M 75.628,29.088 L 81.4467,29.088 L 81.4467,34.9053 L 75.628,34.9053 Z M 81.4467,29.088 L 87.264,29.088 L 87.264,34.9053 L 81.4467,34.9053 Z M 98.8987,29.088 L 104.716,29.088 L 104.716,34.9053 L 98.8987,34.9053 Z M 104.716,29.088 L 110.533,29.088 L 110.533,34.9053 L 104.716,34.9053 Z M 110.533,29.088 L 116.352,29.088 L 116.352,34.9053 L 110.533,34.9053 Z M 133.804,29.088 L 139.621,29.088 L 139.621,34.9053 L 133.804,34.9053 Z M 139.621,29.088 L 145.44,29.088 L 145.44,34.9053 L 139.621,34.9053 Z M 151.257,29.088 L 157.075,29.088 L 157.075,34.9053 L 151.257,34.9053 Z M 186.163,29.088 L 191.98,29.088 L 191.98,34.9053 L 186.163,34.9053 Z M 0,34.9053 L 5.81733,34.9053 L 5.81733,40.7227 L 0,40.7227 Z M 5.81733,34.9053 L 11.6347,34.9053 L 11.6347,40.7227 L 5.81733,40.7227 Z M 11.6347,34.9053 L 17.4533,34.9053 L 17.4533,40.7227 L 11.6347,40.7227 Z M 17.4533,34.9053 L 23.2707,34.9053 L 23.2707,40.7227 L 17.4533,40.7227 Z M 23.2707,34.9053 L 29.088,34.9053 L 29.088,40.7227 L 23.2707,40.7227 Z M 29.088,34.9053 L 34.9053,34.9053 L 34.9053,40.7227 L 29.088,40.7227 Z M 34.9053,34.9053 L 40.7227,34.9053 L 40.7227,40.7227 L 34.9053,40.7227 Z M 46.54,34.9053 L 52.3587,34.9053 L 52.3587,40.7227 L 46.54,40.7227 Z M 58.176,34.9053 L 63.9933,34.9053 L 63.9933,40.7227 L 58.176,40.7227 Z M 69.8107,34.9053 L 75.628,34.9053 L 75.628,40.7227 L 69.8107,40.7227 Z M 81.4467,34.9053 L 87.264,34.9053 L 87.264,40.7227 L 81.4467,40.7227 Z M 93.0813,34.9053 L 98.8987,34.9053 L 98.8987,40.7227 L 93.0813,40.7227 Z M 104.716,34.9053 L 110.533,34.9053 L 110.533,40.7227 L 104.716,40.7227 Z M 116.352,34.9053 L 122.169,34.9053 L 122.169,40.7227 L 116.352,40.7227 Z M 127.987,34.9053 L 133.804,34.9053 L 133.804,40.7227 L 127.987,40.7227 Z M 139.621,34.9053 L 145.44,34.9053 L 145.44,40.7227 L 139.621,40.7227 Z M 151.257,34.9053 L 157.075,34.9053 L 157.075,40.7227 L 151.257,40.7227 Z M 157.075,34.9053 L 162.892,34.9053 L 162.892,40.7227 L 157.075,40.7227 Z M 162.892,34.9053 L 168.709,34.9053 L 168.709,40.7227 L 162.892,40.7227 Z M 168.709,34.9053 L 174.527,34.9053 L 174.527,40.7227 L 168.709,40.7227 Z M 174.527,34.9053 L 180.345,34.9053 L 180.345,40.7227 L 174.527,40.7227 Z M 180.345,34.9053 L 186.163,34.9053 L 186.163,40.7227 L 180.345,40.7227 Z M 186.163,34.9053 L 191.98,34.9053 L 191.98,40.7227 L 186.163,40.7227 Z M 46.54,40.7227 L 52.3587,40.7227 L 52.3587,46.54 L 46.54,46.54 Z M 58.176,40.7227 L 63.9933,40.7227 L 63.9933,46.54 L 58.176,46.54 Z M 63.9933,40.7227 L 69.8107,40.7227 L 69.8107,46.54 L 63.9933,46.54 Z M 69.8107,40.7227 L 75.628,40.7227 L 75.628,46.54 L 69.8107,46.54 Z M 93.0813,40.7227 L 98.8987,40.7227 L 98.8987,46.54 L 93.0813,46.54 Z M 98.8987,40.7227 L 104.716,40.7227 L 104.716,46.54 L 98.8987,46.54 Z M 104.716,40.7227 L 110.533,40.7227 L 110.533,46.54 L 104.716,46.54 Z M 110.533,40.7227 L 116.352,40.7227 L 116.352,46.54 L 110.533,46.54 Z M 116.352,40.7227 L 122.169,40.7227 L 122.169,46.54 L 116.352,46.54 Z M 122.169,40.7227 L 127.987,40.7227 L 127.987,46.54 L 122.169,46.54 Z M 127.987,40.7227 L 133.804,40.7227 L 133.804,46.54 L 127.987,46.54 Z M 133.804,40.7227 L 139.621,40.7227 L 139.621,46.54 L 133.804,46.54 Z M 11.6347,46.54 L 17.4533,46.54 L 17.4533,52.3587 L 11.6347,52.3587 Z M 17.4533,46.54 L 23.2707,46.54 L 23.2707,52.3587 L 17.4533,52.3587 Z M 23.2707,46.54 L 29.088,46.54 L 29.088,52.3587 L 23.2707,52.3587 Z M 34.9053,46.54 L 40.7227,46.54 L 40.7227,52.3587 L 34.9053,52.3587 Z M 46.54,46.54 L 52.3587,46.54 L 52.3587,52.3587 L 46.54,52.3587 Z M 52.3587,46.54 L 58.176,46.54 L 58.176,52.3587 L 52.3587,52.3587 Z M 63.9933,46.54 L 69.8107,46.54 L 69.8107,52.3587 L 63.9933,52.3587 Z M 87.264,46.54 L 93.0813,46.54 L 93.0813,52.3587 L 87.264,52.3587 Z M 98.8987,46.54 L 104.716,46.54 L 104.716,52.3587 L 98.8987,52.3587 Z M 110.533,46.54 L 116.352,46.54 L 116.352,52.3587 L 110.533,52.3587 Z M 133.804,46.54 L 139.621,46.54 L 139.621,52.3587 L 133.804,52.3587 Z M 139.621,46.54 L 145.44,46.54 L 145.44,52.3587 L 139.621,52.3587 Z M 145.44,46.54 L 151.257,46.54 L 151.257,52.3587 L 145.44,52.3587 Z M 151.257,46.54 L 157.075,46.54 L 157.075,52.3587 L 151.257,52.3587 Z M 157.075,46.54 L 162.892,46.54 L 162.892,52.3587 L 157.075,52.3587 Z M 174.527,46.54 L 180.345,46.54 L 180.345,52.3587 L 174.527,52.3587 Z M 180.345,46.54 L 186.163,46.54 L 186.163,52.3587 L 180.345,52.3587 Z M 186.163,46.54 L 191.98,46.54 L 191.98,52.3587 L 186.163,52.3587 Z M 0,52.3587 L 5.81733,52.3587 L 5.81733,58.176 L 0,58.176 Z M 23.2707,52.3587 L 29.088,52.3587 L 29.088,58.176 L 23.2707,58.176 Z M 29.088,52.3587 L 34.9053,52.3587 L 34.9053,58.176 L 29.088,58.176 Z M 58.176,52.3587 L 63.9933,52.3587 L 63.9933,58.176 L 58.176,58.176 Z M 87.264,52.3587 L 93.0813,52.3587 L 93.0813,58.176 L 87.264,58.176 Z M 93.0813,52.3587 L 98.8987,52.3587 L 98.8987,58.176 L 93.0813,58.176 Z M 104.716,52.3587 L 110.533,52.3587 L 110.533,58.176 L 104.716,58.176 Z M 110.533,52.3587 L 116.352,52.3587 L 116.352,58.176 L 110.533,58.176 Z M 116.352,52.3587 L 122.169,52.3587 L 122.169,58.176 L 116.352,58.176 Z M 122.169,52.3587 L 127.987,52.3587 L 127.987,58.176 L 122.169,58.176 Z M 133.804,52.3587 L 139.621,52.3587 L 139.621,58.176 L 133.804,58.176 Z M 145.44,52.3587 L 151.257,52.3587 L 151.257,58.176 L 145.44,58.176 Z M 151.257,52.3587 L 157.075,52.3587 L 157.075,58.176 L 151.257,58.176 Z M 168.709,52.3587 L 174.527,52.3587 L 174.527,58.176 L 168.709,58.176 Z M 180.345,52.3587 L 186.163,52.3587 L 186.163,58.176 L 180.345,58.176 Z M 186.163,52.3587 L 191.98,52.3587 L 191.98,58.176 L 186.163,58.176 Z M 5.81733,58.176 L 11.6347,58.176 L 11.6347,63.9933 L 5.81733,63.9933 Z M 11.6347,58.176 L 17.4533,58.176 L 17.4533,63.9933 L 11.6347,63.9933 Z M 34.9053,58.176 L 40.7227,58.176 L 40.7227,63.9933 L 34.9053,63.9933 Z M 52.3587,58.176 L 58.176,58.176 L 58.176,63.9933 L 52.3587,63.9933 Z M 58.176,58.176 L 63.9933,58.176 L 63.9933,63.9933 L 58.176,63.9933 Z M 63.9933,58.176 L 69.8107,58.176 L 69.8107,63.9933 L 63.9933,63.9933 Z M 75.628,58.176 L 81.4467,58.176 L 81.4467,63.9933 L 75.628,63.9933 Z M 87.264,58.176 L 93.0813,58.176 L 93.0813,63.9933 L 87.264,63.9933 Z M 93.0813,58.176 L 98.8987,58.176 L 98.8987,63.9933 L 93.0813,63.9933 Z M 122.169,58.176 L 127.987,58.176 L 127.987,63.9933 L 122.169,63.9933 Z M 145.44,58.176 L 151.257,58.176 L 151.257,63.9933 L 145.44,63.9933 Z M 151.257,58.176 L 157.075,58.176 L 157.075,63.9933 L 151.257,63.9933 Z M 157.075,58.176 L 162.892,58.176 L 162.892,63.9933 L 157.075,63.9933 Z M 168.709,58.176 L 174.527,58.176 L 174.527,63.9933 L 168.709,63.9933 Z M 180.345,58.176 L 186.163,58.176 L 186.163,63.9933 L 180.345,63.9933 Z M 0,63.9933 L 5.81733,63.9933 L 5.81733,69.8107 L 0,69.8107 Z M 5.81733,63.9933 L 11.6347,63.9933 L 11.6347,69.8107 L 5.81733,69.8107 Z M 11.6347,63.9933 L 17.4533,63.9933 L 17.4533,69.8107 L 11.6347,69.8107 Z M 23.2707,63.9933 L 29.088,63.9933 L 29.088,69.8107 L 23.2707,69.8107 Z M 29.088,63.9933 L 34.9053,63.9933 L 34.9053,69.8107 L 29.088,69.8107 Z M 40.7227,63.9933 L 46.54,63.9933 L 46.54,69.8107 L 40.7227,69.8107 Z M 46.54,63.9933 L 52.3587,63.9933 L 52.3587,69.8107 L 46.54,69.8107 Z M 52.3587,63.9933 L 58.176,63.9933 L 58.176,69.8107 L 52.3587,69.8107 Z M 58.176,63.9933 L 63.9933,63.9933 L 63.9933,69.8107 L 58.176,69.8107 Z M 81.4467,63.9933 L 87.264,63.9933 L 87.264,69.8107 L 81.4467,69.8107 Z M 87.264,63.9933 L 93.0813,63.9933 L 93.0813,69.8107 L 87.264,69.8107 Z M 93.0813,63.9933 L 98.8987,63.9933 L 98.8987,69.8107 L 93.0813,69.8107 Z M 98.8987,63.9933 L 104.716,63.9933 L 104.716,69.8107 L 98.8987,69.8107 Z M 104.716,63.9933 L 110.533,63.9933 L 110.533,69.8107 L 104.716,69.8107 Z M 122.169,63.9933 L 127.987,63.9933 L 127.987,69.8107 L 122.169,69.8107 Z M 127.987,63.9933 L 133.804,63.9933 L 133.804,69.8107 L 127.987,69.8107 Z M 139.621,63.9933 L 145.44,63.9933 L 145.44,69.8107 L 139.621,69.8107 Z M 151.257,63.9933 L 157.075,63.9933 L 157.075,69.8107 L 151.257,69.8107 Z M 168.709,63.9933 L 174.527,63.9933 L 174.527,69.8107 L 168.709,69.8107 Z M 174.527,63.9933 L 180.345,63.9933 L 180.345,69.8107 L 174.527,69.8107 Z M 180.345,63.9933 L 186.163,63.9933 L 186.163,69.8107 L 180.345,69.8107 Z M 186.163,63.9933 L 191.98,63.9933 L 191.98,69.8107 L 186.163,69.8107 Z M 0,69.8107 L 5.81733,69.8107 L 5.81733,75.628 L 0,75.628 Z M 34.9053,69.8107 L 40.7227,69.8107 L 40.7227,75.628 L 34.9053,75.628 Z M 46.54,69.8107 L 52.3587,69.8107 L 52.3587,75.628 L 46.54,75.628 Z M 52.3587,69.8107 L 58.176,69.8107 L 58.176,75.628 L 52.3587,75.628 Z M 69.8107,69.8107 L 75.628,69.8107 L 75.628,75.628 L 69.8107,75.628 Z M 75.628,69.8107 L 81.4467,69.8107 L 81.4467,75.628 L 75.628,75.628 Z M 81.4467,69.8107 L 87.264,69.8107 L 87.264,75.628 L 81.4467,75.628 Z M 87.264,69.8107 L 93.0813,69.8107 L 93.0813,75.628 L 87.264,75.628 Z M 104.716,69.8107 L 110.533,69.8107 L 110.533,75.628 L 104.716,75.628 Z M 116.352,69.8107 L 122.169,69.8107 L 122.169,75.628 L 116.352,75.628 Z M 122.169,69.8107 L 127.987,69.8107 L 127.987,75.628 L 122.169,75.628 Z M 133.804,69.8107 L 139.621,69.8107 L 139.621,75.628 L 133.804,75.628 Z M 139.621,69.8107 L 145.44,69.8107 L 145.44,75.628 L 139.621,75.628 Z M 145.44,69.8107 L 151.257,69.8107 L 151.257,75.628 L 145.44,75.628 Z M 157.075,69.8107 L 162.892,69.8107 L 162.892,75.628 L 157.075,75.628 Z M 162.892,69.8107 L 168.709,69.8107 L 168.709,75.628 L 162.892,75.628 Z M 180.345,69.8107 L 186.163,69.8107 L 186.163,75.628 L 180.345,75.628 Z M 0,75.628 L 5.81733,75.628 L 5.81733,81.4467 L 0,81.4467 Z M 17.4533,75.628 L 23.2707,75.628 L 23.2707,81.4467 L 17.4533,81.4467 Z M 46.54,75.628 L 52.3587,75.628 L 52.3587,81.4467 L 46.54,81.4467 Z M 52.3587,75.628 L 58.176,75.628 L 58.176,81.4467 L 52.3587,81.4467 Z M 63.9933,75.628 L 69.8107,75.628 L 69.8107,81.4467 L 63.9933,81.4467 Z M 75.628,75.628 L 81.4467,75.628 L 81.4467,81.4467 L 75.628,81.4467 Z M 104.716,75.628 L 110.533,75.628 L 110.533,81.4467 L 104.716,81.4467 Z M 110.533,75.628 L 116.352,75.628 L 116.352,81.4467 L 110.533,81.4467 Z M 116.352,75.628 L 122.169,75.628 L 122.169,81.4467 L 116.352,81.4467 Z M 127.987,75.628 L 133.804,75.628 L 133.804,81.4467 L 127.987,81.4467 Z M 133.804,75.628 L 139.621,75.628 L 139.621,81.4467 L 133.804,81.4467 Z M 145.44,75.628 L 151.257,75.628 L 151.257,81.4467 L 145.44,81.4467 Z M 151.257,75.628 L 157.075,75.628 L 157.075,81.4467 L 151.257,81.4467 Z M 168.709,75.628 L 174.527,75.628 L 174.527,81.4467 L 168.709,81.4467 Z M 186.163,75.628 L 191.98,75.628 L 191.98,81.4467 L 186.163,81.4467 Z M 0,81.4467 L 5.81733,81.4467 L 5.81733,87.264 L 0,87.264 Z M 11.6347,81.4467 L 17.4533,81.4467 L 17.4533,87.264 L 11.6347,87.264 Z M 34.9053,81.4467 L 40.7227,81.4467 L 40.7227,87.264 L 34.9053,87.264 Z M 46.54,81.4467 L 52.3587,81.4467 L 52.3587,87.264 L 46.54,87.264 Z M 69.8107,81.4467 L 75.628,81.4467 L 75.628,87.264 L 69.8107,87.264 Z M 75.628,81.4467 L 81.4467,81.4467 L 81.4467,87.264 L 75.628,87.264 Z M 81.4467,81.4467 L 87.264,81.4467 L 87.264,87.264 L 81.4467,87.264 Z M 87.264,81.4467 L 93.0813,81.4467 L 93.0813,87.264 L 87.264,87.264 Z M 93.0813,81.4467 L 98.8987,81.4467 L 98.8987,87.264 L 93.0813,87.264 Z M 104.716,81.4467 L 110.533,81.4467 L 110.533,87.264 L 104.716,87.264 Z M 127.987,81.4467 L 133.804,81.4467 L 133.804,87.264 L 127.987,87.264 Z M 145.44,81.4467 L 151.257,81.4467 L 151.257,87.264 L 145.44,87.264 Z M 168.709,81.4467 L 174.527,81.4467 L 174.527,87.264 L 168.709,87.264 Z M 180.345,81.4467 L 186.163,81.4467 L 186.163,87.264 L 180.345,87.264 Z M 52.3587,87.264 L 58.176,87.264 L 58.176,93.0813 L 52.3587,93.0813 Z M 58.176,87.264 L 63.9933,87.264 L 63.9933,93.0813 L 58.176,93.0813 Z M 63.9933,87.264 L 69.8107,87.264 L 69.8107,93.0813 L 63.9933,93.0813 Z M 69.8107,87.264 L 75.628,87.264 L 75.628,93.0813 L 69.8107,93.0813 Z M 75.628,87.264 L 81.4467,87.264 L 81.4467,93.0813 L 75.628,93.0813 Z M 81.4467,87.264 L 87.264,87.264 L 87.264,93.0813 L 81.4467,93.0813 Z M 87.264,87.264 L 93.0813,87.264 L 93.0813,93.0813 L 87.264,93.0813 Z M 93.0813,87.264 L 98.8987,87.264 L 98.8987,93.0813 L 93.0813,93.0813 Z M 98.8987,87.264 L 104.716,87.264 L 104.716,93.0813 L 98.8987,93.0813 Z M 110.533,87.264 L 116.352,87.264 L 116.352,93.0813 L 110.533,93.0813 Z M 116.352,87.264 L 122.169,87.264 L 122.169,93.0813 L 116.352,93.0813 Z M 122.169,87.264 L 127.987,87.264 L 127.987,93.0813 L 122.169,93.0813 Z M 127.987,87.264 L 133.804,87.264 L 133.804,93.0813 L 127.987,93.0813 Z M 133.804,87.264 L 139.621,87.264 L 139.621,93.0813 L 133.804,93.0813 Z M 145.44,87.264 L 151.257,87.264 L 151.257,93.0813 L 145.44,93.0813 Z M 174.527,87.264 L 180.345,87.264 L 180.345,93.0813 L 174.527,93.0813 Z M 180.345,87.264 L 186.163,87.264 L 186.163,93.0813 L 180.345,93.0813 Z M 186.163,87.264 L 191.98,87.264 L 191.98,93.0813 L 186.163,93.0813 Z M 29.088,93.0813 L 34.9053,93.0813 L 34.9053,98.8987 L 29.088,98.8987 Z M 34.9053,93.0813 L 40.7227,93.0813 L 40.7227,98.8987 L 34.9053,98.8987 Z M 40.7227,93.0813 L 46.54,93.0813 L 46.54,98.8987 L 40.7227,98.8987 Z M 69.8107,93.0813 L 75.628,93.0813 L 75.628,98.8987 L 69.8107,98.8987 Z M 87.264,93.0813 L 93.0813,93.0813 L 93.0813,98.8987 L 87.264,98.8987 Z M 110.533,93.0813 L 116.352,93.0813 L 116.352,98.8987 L 110.533,98.8987 Z M 145.44,93.0813 L 151.257,93.0813 L 151.257,98.8987 L 145.44,98.8987 Z M 162.892,93.0813 L 168.709,93.0813 L 168.709,98.8987 L 162.892,98.8987 Z M 180.345,93.0813 L 186.163,93.0813 L 186.163,98.8987 L 180.345,98.8987 Z M 186.163,93.0813 L 191.98,93.0813 L 191.98,98.8987 L 186.163,98.8987 Z M 5.81733,98.8987 L 11.6347,98.8987 L 11.6347,104.716 L 5.81733,104.716 Z M 40.7227,98.8987 L 46.54,98.8987 L 46.54,104.716 L 40.7227,104.716 Z M 69.8107,98.8987 L 75.628,98.8987 L 75.628,104.716 L 69.8107,104.716 Z M 81.4467,98.8987 L 87.264,98.8987 L 87.264,104.716 L 81.4467,104.716 Z M 93.0813,98.8987 L 98.8987,98.8987 L 98.8987,104.716 L 93.0813,104.716 Z M 98.8987,98.8987 L 104.716,98.8987 L 104.716,104.716 L 98.8987,104.716 Z M 110.533,98.8987 L 116.352,98.8987 L 116.352,104.716 L 110.533,104.716 Z M 116.352,98.8987 L 122.169,98.8987 L 122.169,104.716 L 116.352,104.716 Z M 122.169,98.8987 L 127.987,98.8987 L 127.987,104.716 L 122.169,104.716 Z M 133.804,98.8987 L 139.621,98.8987 L 139.621,104.716 L 133.804,104.716 Z M 139.621,98.8987 L 145.44,98.8987 L 145.44,104.716 L 139.621,104.716 Z M 145.44,98.8987 L 151.257,98.8987 L 151.257,104.716 L 145.44,104.716 Z M 151.257,98.8987 L 157.075,98.8987 L 157.075,104.716 L 151.257,104.716 Z M 186.163,98.8987 L 191.98,98.8987 L 191.98,104.716 L 186.163,104.716 Z M 5.81733,104.716 L 11.6347,104.716 L 11.6347,110.533 L 5.81733,110.533 Z M 17.4533,104.716 L 23.2707,104.716 L 23.2707,110.533 L 17.4533,110.533 Z M 23.2707,104.716 L 29.088,104.716 L 29.088,110.533 L 23.2707,110.533 Z M 29.088,104.716 L 34.9053,104.716 L 34.9053,110.533 L 29.088,110.533 Z M 34.9053,104.716 L 40.7227,104.716 L 40.7227,110.533 L 34.9053,110.533 Z M 52.3587,104.716 L 58.176,104.716 L 58.176,110.533 L 52.3587,110.533 Z M 63.9933,104.716 L 69.8107,104.716 L 69.8107,110.533 L 63.9933,110.533 Z M 69.8107,104.716 L 75.628,104.716 L 75.628,110.533 L 69.8107,110.533 Z M 87.264,104.716 L 93.0813,104.716 L 93.0813,110.533 L 87.264,110.533 Z M 93.0813,104.716 L 98.8987,104.716 L 98.8987,110.533 L 93.0813,110.533 Z M 98.8987,104.716 L 104.716,104.716 L 104.716,110.533 L 98.8987,110.533 Z M 104.716,104.716 L 110.533,104.716 L 110.533,110.533 L 104.716,110.533 Z M 116.352,104.716 L 122.169,104.716 L 122.169,110.533 L 116.352,110.533 Z M 151.257,104.716 L 157.075,104.716 L 157.075,110.533 L 151.257,110.533 Z M 174.527,104.716 L 180.345,104.716 L 180.345,110.533 L 174.527,110.533 Z M 180.345,104.716 L 186.163,104.716 L 186.163,110.533 L 180.345,110.533 Z M 5.81733,110.533 L 11.6347,110.533 L 11.6347,116.352 L 5.81733,116.352 Z M 29.088,110.533 L 34.9053,110.533 L 34.9053,116.352 L 29.088,116.352 Z M 40.7227,110.533 L 46.54,110.533 L 46.54,116.352 L 40.7227,116.352 Z M 52.3587,110.533 L 58.176,110.533 L 58.176,116.352 L 52.3587,116.352 Z M 63.9933,110.533 L 69.8107,110.533 L 69.8107,116.352 L 63.9933,116.352 Z M 69.8107,110.533 L 75.628,110.533 L 75.628,116.352 L 69.8107,116.352 Z M 87.264,110.533 L 93.0813,110.533 L 93.0813,116.352 L 87.264,116.352 Z M 98.8987,110.533 L 104.716,110.533 L 104.716,116.352 L 98.8987,116.352 Z M 104.716,110.533 L 110.533,110.533 L 110.533,116.352 L 104.716,116.352 Z M 110.533,110.533 L 116.352,110.533 L 116.352,116.352 L 110.533,116.352 Z M 116.352,110.533 L 122.169,110.533 L 122.169,116.352 L 116.352,116.352 Z M 122.169,110.533 L 127.987,110.533 L 127.987,116.352 L 122.169,116.352 Z M 133.804,110.533 L 139.621,110.533 L 139.621,116.352 L 133.804,116.352 Z M 139.621,110.533 L 145.44,110.533 L 145.44,116.352 L 139.621,116.352 Z M 145.44,110.533 L 151.257,110.533 L 151.257,116.352 L 145.44,116.352 Z M 151.257,110.533 L 157.075,110.533 L 157.075,116.352 L 151.257,116.352 Z M 162.892,110.533 L 168.709,110.533 L 168.709,116.352 L 162.892,116.352 Z M 168.709,110.533 L 174.527,110.533 L 174.527,116.352 L 168.709,116.352 Z M 174.527,110.533 L 180.345,110.533 L 180.345,116.352 L 174.527,116.352 Z M 180.345,110.533 L 186.163,110.533 L 186.163,116.352 L 180.345,116.352 Z M 186.163,110.533 L 191.98,110.533 L 191.98,116.352 L 186.163,116.352 Z M 11.6347,116.352 L 17.4533,116.352 L 17.4533,122.169 L 11.6347,122.169 Z M 34.9053,116.352 L 40.7227,116.352 L 40.7227,122.169 L 34.9053,122.169 Z M 46.54,116.352 L 52.3587,116.352 L 52.3587,122.169 L 46.54,122.169 Z M 52.3587,116.352 L 58.176,116.352 L 58.176,122.169 L 52.3587,122.169 Z M 58.176,116.352 L 63.9933,116.352 L 63.9933,122.169 L 58.176,122.169 Z M 69.8107,116.352 L 75.628,116.352 L 75.628,122.169 L 69.8107,122.169 Z M 75.628,116.352 L 81.4467,116.352 L 81.4467,122.169 L 75.628,122.169 Z M 87.264,116.352 L 93.0813,116.352 L 93.0813,122.169 L 87.264,122.169 Z M 93.0813,116.352 L 98.8987,116.352 L 98.8987,122.169 L 93.0813,122.169 Z M 104.716,116.352 L 110.533,116.352 L 110.533,122.169 L 104.716,122.169 Z M 110.533,116.352 L 116.352,116.352 L 116.352,122.169 L 110.533,122.169 Z M 127.987,116.352 L 133.804,116.352 L 133.804,122.169 L 127.987,122.169 Z M 139.621,116.352 L 145.44,116.352 L 145.44,122.169 L 139.621,122.169 Z M 157.075,116.352 L 162.892,116.352 L 162.892,122.169 L 157.075,122.169 Z M 162.892,116.352 L 168.709,116.352 L 168.709,122.169 L 162.892,122.169 Z M 168.709,116.352 L 174.527,116.352 L 174.527,122.169 L 168.709,122.169 Z M 0,122.169 L 5.81733,122.169 L 5.81733,127.987 L 0,127.987 Z M 5.81733,122.169 L 11.6347,122.169 L 11.6347,127.987 L 5.81733,127.987 Z M 17.4533,122.169 L 23.2707,122.169 L 23.2707,127.987 L 17.4533,127.987 Z M 29.088,122.169 L 34.9053,122.169 L 34.9053,127.987 L 29.088,127.987 Z M 40.7227,122.169 L 46.54,122.169 L 46.54,127.987 L 40.7227,127.987 Z M 46.54,122.169 L 52.3587,122.169 L 52.3587,127.987 L 46.54,127.987 Z M 63.9933,122.169 L 69.8107,122.169 L 69.8107,127.987 L 63.9933,127.987 Z M 75.628,122.169 L 81.4467,122.169 L 81.4467,127.987 L 75.628,127.987 Z M 81.4467,122.169 L 87.264,122.169 L 87.264,127.987 L 81.4467,127.987 Z M 93.0813,122.169 L 98.8987,122.169 L 98.8987,127.987 L 93.0813,127.987 Z M 116.352,122.169 L 122.169,122.169 L 122.169,127.987 L 116.352,127.987 Z M 127.987,122.169 L 133.804,122.169 L 133.804,127.987 L 127.987,127.987 Z M 139.621,122.169 L 145.44,122.169 L 145.44,127.987 L 139.621,127.987 Z M 151.257,122.169 L 157.075,122.169 L 157.075,127.987 L 151.257,127.987 Z M 157.075,122.169 L 162.892,122.169 L 162.892,127.987 L 157.075,127.987 Z M 168.709,122.169 L 174.527,122.169 L 174.527,127.987 L 168.709,127.987 Z M 174.527,122.169 L 180.345,122.169 L 180.345,127.987 L 174.527,127.987 Z M 186.163,122.169 L 191.98,122.169 L 191.98,127.987 L 186.163,127.987 Z M 0,127.987 L 5.81733,127.987 L 5.81733,133.804 L 0,133.804 Z M 29.088,127.987 L 34.9053,127.987 L 34.9053,133.804 L 29.088,133.804 Z M 34.9053,127.987 L 40.7227,127.987 L 40.7227,133.804 L 34.9053,133.804 Z M 46.54,127.987 L 52.3587,127.987 L 52.3587,133.804 L 46.54,133.804 Z M 52.3587,127.987 L 58.176,127.987 L 58.176,133.804 L 52.3587,133.804 Z M 81.4467,127.987 L 87.264,127.987 L 87.264,133.804 L 81.4467,133.804 Z M 93.0813,127.987 L 98.8987,127.987 L 98.8987,133.804 L 93.0813,133.804 Z M 98.8987,127.987 L 104.716,127.987 L 104.716,133.804 L 98.8987,133.804 Z M 110.533,127.987 L 116.352,127.987 L 116.352,133.804 L 110.533,133.804 Z M 127.987,127.987 L 133.804,127.987 L 133.804,133.804 L 127.987,133.804 Z M 162.892,127.987 L 168.709,127.987 L 168.709,133.804 L 162.892,133.804 Z M 168.709,127.987 L 174.527,127.987 L 174.527,133.804 L 168.709,133.804 Z M 180.345,127.987 L 186.163,127.987 L 186.163,133.804 L 180.345,133.804 Z M 0,133.804 L 5.81733,133.804 L 5.81733,139.621 L 0,139.621 Z M 17.4533,133.804 L 23.2707,133.804 L 23.2707,139.621 L 17.4533,139.621 Z M 23.2707,133.804 L 29.088,133.804 L 29.088,139.621 L 23.2707,139.621 Z M 29.088,133.804 L 34.9053,133.804 L 34.9053,139.621 L 29.088,139.621 Z M 46.54,133.804 L 52.3587,133.804 L 52.3587,139.621 L 46.54,139.621 Z M 52.3587,133.804 L 58.176,133.804 L 58.176,139.621 L 52.3587,139.621 Z M 75.628,133.804 L 81.4467,133.804 L 81.4467,139.621 L 75.628,139.621 Z M 93.0813,133.804 L 98.8987,133.804 L 98.8987,139.621 L 93.0813,139.621 Z M 104.716,133.804 L 110.533,133.804 L 110.533,139.621 L 104.716,139.621 Z M 110.533,133.804 L 116.352,133.804 L 116.352,139.621 L 110.533,139.621 Z M 116.352,133.804 L 122.169,133.804 L 122.169,139.621 L 116.352,139.621 Z M 122.169,133.804 L 127.987,133.804 L 127.987,139.621 L 122.169,139.621 Z M 133.804,133.804 L 139.621,133.804 L 139.621,139.621 L 133.804,139.621 Z M 168.709,133.804 L 174.527,133.804 L 174.527,139.621 L 168.709,139.621 Z M 174.527,133.804 L 180.345,133.804 L 180.345,139.621 L 174.527,139.621 Z M 180.345,133.804 L 186.163,133.804 L 186.163,139.621 L 180.345,139.621 Z M 186.163,133.804 L 191.98,133.804 L 191.98,139.621 L 186.163,139.621 Z M 0,139.621 L 5.81733,139.621 L 5.81733,145.44 L 0,145.44 Z M 11.6347,139.621 L 17.4533,139.621 L 17.4533,145.44 L 11.6347,145.44 Z M 34.9053,139.621 L 40.7227,139.621 L 40.7227,145.44 L 34.9053,145.44 Z M 52.3587,139.621 L 58.176,139.621 L 58.176,145.44 L 52.3587,145.44 Z M 63.9933,139.621 L 69.8107,139.621 L 69.8107,145.44 L 63.9933,145.44 Z M 75.628,139.621 L 81.4467,139.621 L 81.4467,145.44 L 75.628,145.44 Z M 81.4467,139.621 L 87.264,139.621 L 87.264,145.44 L 81.4467,145.44 Z M 93.0813,139.621 L 98.8987,139.621 L 98.8987,145.44 L 93.0813,145.44 Z M 98.8987,139.621 L 104.716,139.621 L 104.716,145.44 L 98.8987,145.44 Z M 116.352,139.621 L 122.169,139.621 L 122.169,145.44 L 116.352,145.44 Z M 127.987,139.621 L 133.804,139.621 L 133.804,145.44 L 127.987,145.44 Z M 133.804,139.621 L 139.621,139.621 L 139.621,145.44 L 133.804,145.44 Z M 139.621,139.621 L 145.44,139.621 L 145.44,145.44 L 139.621,145.44 Z M 145.44,139.621 L 151.257,139.621 L 151.257,145.44 L 145.44,145.44 Z M 151.257,139.621 L 157.075,139.621 L 157.075,145.44 L 151.257,145.44 Z M 157.075,139.621 L 162.892,139.621 L 162.892,145.44 L 157.075,145.44 Z M 162.892,139.621 L 168.709,139.621 L 168.709,145.44 L 162.892,145.44 Z M 168.709,139.621 L 174.527,139.621 L 174.527,145.44 L 168.709,145.44 Z M 46.54,145.44 L 52.3587,145.44 L 52.3587,151.257 L 46.54,151.257 Z M 58.176,145.44 L 63.9933,145.44 L 63.9933,151.257 L 58.176,151.257 Z M 63.9933,145.44 L 69.8107,145.44 L 69.8107,151.257 L 63.9933,151.257 Z M 69.8107,145.44 L 75.628,145.44 L 75.628,151.257 L 69.8107,151.257 Z M 75.628,145.44 L 81.4467,145.44 L 81.4467,151.257 L 75.628,151.257 Z M 87.264,145.44 L 93.0813,145.44 L 93.0813,151.257 L 87.264,151.257 Z M 98.8987,145.44 L 104.716,145.44 L 104.716,151.257 L 98.8987,151.257 Z M 104.716,145.44 L 110.533,145.44 L 110.533,151.257 L 104.716,151.257 Z M 139.621,145.44 L 145.44,145.44 L 145.44,151.257 L 139.621,151.257 Z M 162.892,145.44 L 168.709,145.44 L 168.709,151.257 L 162.892,151.257 Z M 168.709,145.44 L 174.527,145.44 L 174.527,151.257 L 168.709,151.257 Z M 180.345,145.44 L 186.163,145.44 L 186.163,151.257 L 180.345,151.257 Z M 186.163,145.44 L 191.98,145.44 L 191.98,151.257 L 186.163,151.257 Z M 0,151.257 L 5.81733,151.257 L 5.81733,157.075 L 0,157.075 Z M 5.81733,151.257 L 11.6347,151.257 L 11.6347,157.075 L 5.81733,157.075 Z M 11.6347,151.257 L 17.4533,151.257 L 17.4533,157.075 L 11.6347,157.075 Z M 17.4533,151.257 L 23.2707,151.257 L 23.2707,157.075 L 17.4533,157.075 Z M 23.2707,151.257 L 29.088,151.257 L 29.088,157.075 L 23.2707,157.075 Z M 29.088,151.257 L 34.9053,151.257 L 34.9053,157.075 L 29.088,157.075 Z M 34.9053,151.257 L 40.7227,151.257 L 40.7227,157.075 L 34.9053,157.075 Z M 58.176,151.257 L 63.9933,151.257 L 63.9933,157.075 L 58.176,157.075 Z M 75.628,151.257 L 81.4467,151.257 L 81.4467,157.075 L 75.628,157.075 Z M 98.8987,151.257 L 104.716,151.257 L 104.716,157.075 L 98.8987,157.075 Z M 116.352,151.257 L 122.169,151.257 L 122.169,157.075 L 116.352,157.075 Z M 127.987,151.257 L 133.804,151.257 L 133.804,157.075 L 127.987,157.075 Z M 133.804,151.257 L 139.621,151.257 L 139.621,157.075 L 133.804,157.075 Z M 139.621,151.257 L 145.44,151.257 L 145.44,157.075 L 139.621,157.075 Z M 151.257,151.257 L 157.075,151.257 L 157.075,157.075 L 151.257,157.075 Z M 162.892,151.257 L 168.709,151.257 L 168.709,157.075 L 162.892,157.075 Z M 180.345,151.257 L 186.163,151.257 L 186.163,157.075 L 180.345,157.075 Z M 0,157.075 L 5.81733,157.075 L 5.81733,162.892 L 0,162.892 Z M 34.9053,157.075 L 40.7227,157.075 L 40.7227,162.892 L 34.9053,162.892 Z M 58.176,157.075 L 63.9933,157.075 L 63.9933,162.892 L 58.176,162.892 Z M 63.9933,157.075 L 69.8107,157.075 L 69.8107,162.892 L 63.9933,162.892 Z M 69.8107,157.075 L 75.628,157.075 L 75.628,162.892 L 69.8107,162.892 Z M 87.264,157.075 L 93.0813,157.075 L 93.0813,162.892 L 87.264,162.892 Z M 104.716,157.075 L 110.533,157.075 L 110.533,162.892 L 104.716,162.892 Z M 116.352,157.075 L 122.169,157.075 L 122.169,162.892 L 116.352,162.892 Z M 133.804,157.075 L 139.621,157.075 L 139.621,162.892 L 133.804,162.892 Z M 139.621,157.075 L 145.44,157.075 L 145.44,162.892 L 139.621,162.892 Z M 162.892,157.075 L 168.709,157.075 L 168.709,162.892 L 162.892,162.892 Z M 168.709,157.075 L 174.527,157.075 L 174.527,162.892 L 168.709,162.892 Z M 174.527,157.075 L 180.345,157.075 L 180.345,162.892 L 174.527,162.892 Z M 180.345,157.075 L 186.163,157.075 L 186.163,162.892 L 180.345,162.892 Z M 186.163,157.075 L 191.98,157.075 L 191.98,162.892 L 186.163,162.892 Z M 0,162.892 L 5.81733,162.892 L 5.81733,168.709 L 0,168.709 Z M 11.6347,162.892 L 17.4533,162.892 L 17.4533,168.709 L 11.6347,168.709 Z M 17.4533,162.892 L 23.2707,162.892 L 23.2707,168.709 L 17.4533,168.709 Z M 23.2707,162.892 L 29.088,162.892 L 29.088,168.709 L 23.2707,168.709 Z M 34.9053,162.892 L 40.7227,162.892 L 40.7227,168.709 L 34.9053,168.709 Z M 46.54,162.892 L 52.3587,162.892 L 52.3587,168.709 L 46.54,168.709 Z M 69.8107,162.892 L 75.628,162.892 L 75.628,168.709 L 69.8107,168.709 Z M 75.628,162.892 L 81.4467,162.892 L 81.4467,168.709 L 75.628,168.709 Z M 81.4467,162.892 L 87.264,162.892 L 87.264,168.709 L 81.4467,168.709 Z M 87.264,162.892 L 93.0813,162.892 L 93.0813,168.709 L 87.264,168.709 Z M 93.0813,162.892 L 98.8987,162.892 L 98.8987,168.709 L 93.0813,168.709 Z M 116.352,162.892 L 122.169,162.892 L 122.169,168.709 L 116.352,168.709 Z M 122.169,162.892 L 127.987,162.892 L 127.987,168.709 L 122.169,168.709 Z M 127.987,162.892 L 133.804,162.892 L 133.804,168.709 L 127.987,168.709 Z M 139.621,162.892 L 145.44,162.892 L 145.44,168.709 L 139.621,168.709 Z M 145.44,162.892 L 151.257,162.892 L 151.257,168.709 L 145.44,168.709 Z M 151.257,162.892 L 157.075,162.892 L 157.075,168.709 L 151.257,168.709 Z M 157.075,162.892 L 162.892,162.892 L 162.892,168.709 L 157.075,168.709 Z M 162.892,162.892 L 168.709,162.892 L 168.709,168.709 L 162.892,168.709 Z M 180.345,162.892 L 186.163,162.892 L 186.163,168.709 L 180.345,168.709 Z M 186.163,162.892 L 191.98,162.892 L 191.98,168.709 L 186.163,168.709 Z M 0,168.709 L 5.81733,168.709 L 5.81733,174.527 L 0,174.527 Z M 11.6347,168.709 L 17.4533,168.709 L 17.4533,174.527 L 11.6347,174.527 Z M 17.4533,168.709 L 23.2707,168.709 L 23.2707,174.527 L 17.4533,174.527 Z M 23.2707,168.709 L 29.088,168.709 L 29.088,174.527 L 23.2707,174.527 Z M 34.9053,168.709 L 40.7227,168.709 L 40.7227,174.527 L 34.9053,174.527 Z M 46.54,168.709 L 52.3587,168.709 L 52.3587,174.527 L 46.54,174.527 Z M 75.628,168.709 L 81.4467,168.709 L 81.4467,174.527 L 75.628,174.527 Z M 81.4467,168.709 L 87.264,168.709 L 87.264,174.527 L 81.4467,174.527 Z M 87.264,168.709 L 93.0813,168.709 L 93.0813,174.527 L 87.264,174.527 Z M 104.716,168.709 L 110.533,168.709 L 110.533,174.527 L 104.716,174.527 Z M 110.533,168.709 L 116.352,168.709 L 116.352,174.527 L 110.533,174.527 Z M 133.804,168.709 L 139.621,168.709 L 139.621,174.527 L 133.804,174.527 Z M 145.44,168.709 L 151.257,168.709 L 151.257,174.527 L 145.44,174.527 Z M 162.892,168.709 L 168.709,168.709 L 168.709,174.527 L 162.892,174.527 Z M 168.709,168.709 L 174.527,168.709 L 174.527,174.527 L 168.709,174.527 Z M 180.345,168.709 L 186.163,168.709 L 186.163,174.527 L 180.345,174.527 Z M 0,174.527 L 5.81733,174.527 L 5.81733,180.345 L 0,180.345 Z M 11.6347,174.527 L 17.4533,174.527 L 17.4533,180.345 L 11.6347,180.345 Z M 17.4533,174.527 L 23.2707,174.527 L 23.2707,180.345 L 17.4533,180.345 Z M 23.2707,174.527 L 29.088,174.527 L 29.088,180.345 L 23.2707,180.345 Z M 34.9053,174.527 L 40.7227,174.527 L 40.7227,180.345 L 34.9053,180.345 Z M 46.54,174.527 L 52.3587,174.527 L 52.3587,180.345 L 46.54,180.345 Z M 58.176,174.527 L 63.9933,174.527 L 63.9933,180.345 L 58.176,180.345 Z M 63.9933,174.527 L 69.8107,174.527 L 69.8107,180.345 L 63.9933,180.345 Z M 69.8107,174.527 L 75.628,174.527 L 75.628,180.345 L 69.8107,180.345 Z M 81.4467,174.527 L 87.264,174.527 L 87.264,180.345 L 81.4467,180.345 Z M 93.0813,174.527 L 98.8987,174.527 L 98.8987,180.345 L 93.0813,180.345 Z M 98.8987,174.527 L 104.716,174.527 L 104.716,180.345 L 98.8987,180.345 Z M 104.716,174.527 L 110.533,174.527 L 110.533,180.345 L 104.716,180.345 Z M 110.533,174.527 L 116.352,174.527 L 116.352,180.345 L 110.533,180.345 Z M 122.169,174.527 L 127.987,174.527 L 127.987,180.345 L 122.169,180.345 Z M 139.621,174.527 L 145.44,174.527 L 145.44,180.345 L 139.621,180.345 Z M 145.44,174.527 L 151.257,174.527 L 151.257,180.345 L 145.44,180.345 Z M 151.257,174.527 L 157.075,174.527 L 157.075,180.345 L 151.257,180.345 Z M 0,180.345 L 5.81733,180.345 L 5.81733,186.163 L 0,186.163 Z M 34.9053,180.345 L 40.7227,180.345 L 40.7227,186.163 L 34.9053,186.163 Z M 52.3587,180.345 L 58.176,180.345 L 58.176,186.163 L 52.3587,186.163 Z M 75.628,180.345 L 81.4467,180.345 L 81.4467,186.163 L 75.628,186.163 Z M 81.4467,180.345 L 87.264,180.345 L 87.264,186.163 L 81.4467,186.163 Z M 87.264,180.345 L 93.0813,180.345 L 93.0813,186.163 L 87.264,186.163 Z M 98.8987,180.345 L 104.716,180.345 L 104.716,186.163 L 98.8987,186.163 Z M 104.716,180.345 L 110.533,180.345 L 110.533,186.163 L 104.716,186.163 Z M 110.533,180.345 L 116.352,180.345 L 116.352,186.163 L 110.533,186.163 Z M 116.352,180.345 L 122.169,180.345 L 122.169,186.163 L 116.352,186.163 Z M 127.987,180.345 L 133.804,180.345 L 133.804,186.163 L 127.987,186.163 Z M 157.075,180.345 L 162.892,180.345 L 162.892,186.163 L 157.075,186.163 Z M 168.709,180.345 L 174.527,180.345 L 174.527,186.163 L 168.709,186.163 Z M 174.527,180.345 L 180.345,180.345 L 180.345,186.163 L 174.527,186.163 Z M 0,186.163 L 5.81733,186.163 L 5.81733,191.98 L 0,191.98 Z M 5.81733,186.163 L 11.6347,186.163 L 11.6347,191.98 L 5.81733,191.98 Z M 11.6347,186.163 L 17.4533,186.163 L 17.4533,191.98 L 11.6347,191.98 Z M 17.4533,186.163 L 23.2707,186.163 L 23.2707,191.98 L 17.4533,191.98 Z M 23.2707,186.163 L 29.088,186.163 L 29.088,191.98 L 23.2707,191.98 Z M 29.088,186.163 L 34.9053,186.163 L 34.9053,191.98 L 29.088,191.98 Z M 34.9053,186.163 L 40.7227,186.163 L 40.7227,191.98 L 34.9053,191.98 Z M 58.176,186.163 L 63.9933,186.163 L 63.9933,191.98 L 58.176,191.98 Z M 63.9933,186.163 L 69.8107,186.163 L 69.8107,191.98 L 63.9933,191.98 Z M 69.8107,186.163 L 75.628,186.163 L 75.628,191.98 L 69.8107,191.98 Z M 81.4467,186.163 L 87.264,186.163 L 87.264,191.98 L 81.4467,191.98 Z M 98.8987,186.163 L 104.716,186.163 L 104.716,191.98 L 98.8987,191.98 Z M 110.533,186.163 L 116.352,186.163 L 116.352,191.98 L 110.533,191.98 Z M 116.352,186.163 L 122.169,186.163 L 122.169,191.98 L 116.352,191.98 Z M 133.804,186.163 L 139.621,186.163 L 139.621,191.98 L 133.804,191.98 Z M 139.621,186.163 L 145.44,186.163 L 145.44,191.98 L 139.621,191.98 Z M 151.257,186.163 L 157.075,186.163 L 157.075,191.98 L 151.257,191.98 Z M 168.709,186.163 L 174.527,186.163 L 174.527,191.98 L 168.709,191.98 Z M 180.345,186.163 L 186.163,186.163 L 186.163,191.98 L 180.345,191.98 Z "/>
</svg>