<svg width="512" height="512" viewBox="0 0 512 512" fill="none" xmlns="http://www.w3.org/2000/svg"
    class="RGLogo">
    <g id="Frame 13" clip-path="url(#clip0_1255_27)">
        <g id="RGLogo">
            <g class="RGLogo__Outline">
                <path id="Strap__Outline"
                    d="M223.012 215.155L220.179 212.332L191.079 183.336L188.245 180.513L191.069 177.679L212.843 155.826C222.787 145.846 227.56 136.424 228.066 127.543L228.068 127.516L228.069 127.489C228.704 118.505 225.318 110.067 217.25 102.028C209.157 93.9638 200.757 90.5429 191.922 91.0786C183.055 91.6161 173.575 96.4856 163.469 106.628L135.372 134.826L132.549 137.659L129.715 134.836L99.9384 105.166L97.1049 102.343L99.9282 99.5092L130.048 69.2813C143.563 55.717 157.848 46.1597 172.922 40.7905L174.265 44.5586L172.922 40.7905C187.985 35.4253 202.873 34.4198 217.491 37.8826C232.296 41.203 245.788 49.0406 257.962 61.1703C270.142 73.3067 278.03 86.7786 281.4 101.581L281.404 101.597L281.407 101.612C284.295 114.782 283.614 128.119 279.443 141.559L359.234 157.624L359.289 157.635L359.343 157.648L415.323 170.551L415.347 170.557L415.371 170.562L414.425 174.449C415.371 170.562 415.372 170.563 415.373 170.563L415.376 170.564L415.384 170.566L415.414 170.573L415.52 170.599C415.612 170.622 415.745 170.656 415.917 170.7C416.26 170.787 416.76 170.918 417.398 171.09C418.674 171.434 420.507 171.946 422.754 172.626C427.245 173.984 433.418 176.016 440.145 178.715C453.404 184.034 469.561 192.228 478.792 203.465C484.953 210.964 489.223 217.716 492.318 225.084C495.403 232.43 497.247 240.218 498.732 249.682C501.89 269.804 499.003 282.17 493.428 301.053C489.162 315.504 479.083 331.549 470.322 343.751C465.903 349.906 461.745 355.185 458.69 358.926C457.162 360.798 455.907 362.288 455.032 363.314C454.594 363.827 454.251 364.224 454.016 364.494C453.898 364.63 453.807 364.734 453.745 364.804L453.673 364.886L453.653 364.908L453.648 364.915L453.646 364.917C453.645 364.917 453.645 364.918 450.65 362.267L453.645 364.918L450.832 368.095L447.826 365.1L415.047 332.438L412.085 329.487L223.012 215.155ZM223.012 215.155L225.836 212.322L249.689 188.382L320.544 202.683L320.566 202.687L387.707 217.025L387.917 217.07L388.13 217.092L223.012 215.155Z"
                    stroke-width="8" />
                <path id="Neck__Outline"
                    d="M216.678 215.843L267.716 266.697L233.101 301.437L68.1443 137.072L16.3538 98.1106C16.3538 98.1106 21.7264 75.8 31.5238 65.9674C41.3211 56.1348 63.6123 50.6821 63.6123 50.6821L102.759 102.332M216.678 215.843C216.678 215.843 114.49 114.021 102.759 102.332M216.678 215.843L102.759 102.332"
                    stroke-width="15" />
                <path id="Body__Outline"
                    d="M389.715 294.162L386.882 291.338L384.058 294.172L352.365 325.979L349.542 328.812L352.375 331.636L396.936 376.036C393.546 386.902 387.476 396.766 378.629 405.645C369.63 414.676 359.737 420.603 348.942 423.574C337.967 426.404 326.931 426.219 315.758 422.993C304.753 419.623 294.569 413.341 285.205 404.011C275.683 394.523 269.294 384.285 265.887 373.301C262.622 362.143 262.474 351.195 265.405 340.374C268.331 329.567 274.294 319.566 283.46 310.368C297.905 295.871 315.602 289.248 336.875 290.494L341.051 290.739L341.108 286.556L341.705 242.645L341.755 238.979L338.107 238.611C321.395 236.923 305.071 239.222 289.188 245.484C273.309 251.744 258.612 261.71 245.09 275.281C228.92 291.509 217.915 309.826 212.194 330.215C206.475 350.298 206.434 370.484 212.067 390.69C217.559 410.781 228.412 428.845 244.493 444.869C260.578 460.895 278.754 471.754 299.004 477.322L299.014 477.325L299.024 477.328C319.099 482.736 339.269 482.619 359.46 476.988L359.477 476.984L359.495 476.978C379.557 471.185 397.532 460.268 413.403 444.34C424.644 433.059 433.949 420.165 441.314 405.676C448.695 391.159 453.25 376.353 454.932 361.274L455.146 359.358L453.78 357.997L389.715 294.162Z"
                    stroke-width="8" />
            </g>
            <path id="Strap" class="RGLogo__R"
                d="M193.902 180.503L223.002 209.498L248.373 184.036L321.357 198.766L388.542 213.113C388.542 213.113 431.587 217.562 444.093 237.727C453.498 252.892 453.015 265.62 449.452 283.105C445.068 304.614 417.87 329.604 417.87 329.604L450.65 362.267C450.65 362.267 481.464 327.453 489.592 299.921C495.108 281.235 497.801 269.55 494.781 250.302C491.86 231.694 487.658 220.559 475.702 206.004C458.615 185.206 414.425 174.449 414.425 174.449L358.445 161.545L274.198 144.583C279.426 130.313 280.527 116.275 277.5 102.469C274.322 88.5137 266.868 75.692 255.138 64.0038C243.408 52.3156 230.56 44.9078 216.593 41.7804C202.776 38.5026 188.667 39.4287 174.265 44.5586C159.862 49.6885 146.068 58.8705 132.881 72.1046L102.762 102.333L132.538 132.003L160.635 103.805C171.124 93.2777 181.473 87.7047 191.68 87.0859C201.887 86.4671 211.351 90.5033 220.074 99.1945C228.796 107.886 232.791 117.411 232.059 127.771C231.477 137.98 226.016 148.273 215.677 158.649L193.902 180.503Z" />
            <g id="Neck" class="RGLogo__Neck">
                <path
                    d="M216.679 215.843L267.717 266.697L233.102 301.437L68.1453 137.072L16.3548 98.1106C16.3548 98.1106 21.7274 75.8 31.5247 65.9674C41.3221 56.1348 63.6133 50.6821 63.6133 50.6821L102.76 102.332C114.491 114.021 216.679 215.843 216.679 215.843Z" />
                <path
                    d="M216.679 215.843L267.717 266.697L233.102 301.437L68.1453 137.072L16.3548 98.1106C16.3548 98.1106 21.7274 75.8 31.5247 65.9674C41.3221 56.1348 63.6133 50.6821 63.6133 50.6821L102.76 102.332C114.491 114.021 216.679 215.843 216.679 215.843Z" />
            </g>
            <path id="Body" class="RGLogo__G"
                d="M386.892 296.995L450.957 360.831C449.332 375.395 444.929 389.739 437.749 403.863C430.568 417.987 421.509 430.539 410.57 441.517C395.135 457.007 377.741 467.546 358.385 473.135C338.88 478.575 319.439 478.685 300.065 473.465C280.54 468.096 262.957 457.619 247.317 442.035C231.676 426.451 221.212 408.981 215.923 389.625C210.484 370.119 210.524 350.679 216.043 331.304C221.562 311.628 232.189 293.895 247.923 278.105C261.11 264.871 275.354 255.237 290.655 249.205C305.956 243.173 321.64 240.968 337.705 242.59L337.109 286.501C314.739 285.19 295.911 292.205 280.627 307.544C271.036 317.169 264.675 327.764 261.544 339.329C258.412 350.893 258.583 362.602 262.057 374.455C265.681 386.158 272.456 396.954 282.381 406.844C292.156 416.585 302.902 423.246 314.618 426.827C326.483 430.259 338.268 430.463 349.972 427.439C361.525 424.266 372.022 417.942 381.462 408.468C391.352 398.542 398.013 387.347 401.443 374.881L355.199 328.802L386.892 296.995Z" />
            <rect id="Bar" class="RGLogo__Bar" x="370.566" y="438.408" width="47.7673" height="17.9128"
                transform="rotate(-45.1029 370.566 438.408)" />
            <g id="Pegs" class="RGLogo__Pegs">
                <circle id="Ellipse 56" cx="34.3021" cy="99.1338" r="5.97092"
                    transform="rotate(-45.1029 34.3021 99.1338)" />
                <circle id="Ellipse 57" cx="51.2132" cy="111.769" r="5.97092"
                    transform="rotate(-45.1029 51.2132 111.769)" />
                <circle id="Ellipse 58" cx="68.1228" cy="124.405" r="5.97092"
                    transform="rotate(-45.1029 68.1228 124.405)" />
                <circle id="Ellipse 59" cx="5.97092" cy="5.97092" r="5.97092"
                    transform="matrix(-0.705836 0.708376 0.708376 0.705836 63.7896 61.082)"
                    />
                <circle id="Ellipse 60" cx="5.97092" cy="5.97092" r="5.97092"
                    transform="matrix(-0.705836 0.708376 0.708376 0.705836 76.4819 77.9487)"
                    />
                <circle id="Ellipse 61" cx="5.97092" cy="5.97092" r="5.97092"
                    transform="matrix(-0.705836 0.708376 0.708376 0.705836 89.1812 94.8145)"
                    />
            </g>
            <g id="Strings" class="RGLogo__Strings">
                <path id="Vector 11" d="M385.349 440.492L76.584 132.834" />
                <path id="Vector 12" d="M406.418 419.344L97.6533 111.687" />
                <path id="Vector 13" d="M389.561 436.264L80.7959 128.606" />
                <path id="Vector 14" d="M393.775 432.034L85.0107 124.376" />
                <path id="Vector 15" d="M397.989 427.803L89.2246 120.146" />
                <path id="Vector 16" d="M402.203 423.574L93.438 115.917" />
            </g>
        </g>
    </g>
    <defs>
        <clipPath id="clip0_1255_27">
            <rect width="512" height="512" fill="white" />
        </clipPath>
    </defs>
</svg>