<svg xmlns="http://www.w3.org/2000/svg"
     width="11.1111in" height="11.1111in"
     viewBox="0 0 1000 1000">
  <path id="qr"
        fill="#000000"
        d="M 106.02,100.57
           C 100.17,103.02 100.07,106.14 100.00,112.00
             100.00,112.00 100.00,151.00 100.00,151.00
             100.00,151.00 100.00,310.00 100.00,310.00
             100.01,313.70 99.68,318.66 102.51,321.49
             105.16,324.14 109.52,323.98 113.00,324.00
             113.00,324.00 149.00,324.00 149.00,324.00
             149.00,324.00 310.00,324.00 310.00,324.00
             313.70,323.99 318.66,324.32 321.49,321.49
             324.14,318.84 323.98,314.48 324.00,311.00
             324.00,311.00 324.00,275.00 324.00,275.00
             324.00,275.00 324.00,114.00 324.00,114.00
             323.99,110.30 324.32,105.34 321.49,102.51
             318.84,99.86 314.48,100.02 311.00,100.00
             311.00,100.00 274.00,100.00 274.00,100.00
             274.00,100.00 162.00,100.00 162.00,100.00
             162.00,100.00 126.00,100.00 126.00,100.00
             120.15,100.00 111.51,99.57 106.02,100.57 Z
           M 388.00,100.00
           C 388.00,100.00 388.00,132.00 388.00,132.00
             388.00,132.00 356.00,132.00 356.00,132.00
             356.00,132.00 356.00,164.00 356.00,164.00
             356.00,164.00 388.00,164.00 388.00,164.00
             388.00,164.00 388.00,196.00 388.00,196.00
             388.00,196.00 356.00,196.00 356.00,196.00
             356.00,196.00 356.00,228.00 356.00,228.00
             356.00,228.00 420.00,228.00 420.00,228.00
             420.00,228.00 420.00,324.00 420.00,324.00
             420.00,324.00 452.00,324.00 452.00,324.00
             452.00,324.00 452.00,228.00 452.00,228.00
             452.00,228.00 484.00,228.00 484.00,228.00
             484.00,228.00 484.00,260.00 484.00,260.00
             484.00,260.00 516.00,260.00 516.00,260.00
             516.00,260.00 516.00,292.00 516.00,292.00
             516.00,292.00 484.00,292.00 484.00,292.00
             484.00,292.00 484.00,388.00 484.00,388.00
             484.00,388.00 580.00,388.00 580.00,388.00
             580.00,388.00 580.00,420.00 580.00,420.00
             580.00,420.00 548.00,420.00 548.00,420.00
             548.00,420.00 548.00,452.00 548.00,452.00
             548.00,452.00 516.00,452.00 516.00,452.00
             516.00,452.00 516.00,420.00 516.00,420.00
             516.00,420.00 452.00,420.00 452.00,420.00
             452.00,420.00 452.00,452.00 452.00,452.00
             452.00,452.00 420.00,452.00 420.00,452.00
             420.00,452.00 420.00,388.00 420.00,388.00
             420.00,388.00 452.00,388.00 452.00,388.00
             452.00,388.00 452.00,356.00 452.00,356.00
             452.00,356.00 292.00,356.00 292.00,356.00
             292.00,356.00 292.00,388.00 292.00,388.00
             292.00,388.00 260.00,388.00 260.00,388.00
             260.00,388.00 260.00,356.00 260.00,356.00
             260.00,356.00 100.00,356.00 100.00,356.00
             100.00,356.00 100.00,452.00 100.00,452.00
             100.00,452.00 164.00,452.00 164.00,452.00
             164.00,452.00 164.00,484.00 164.00,484.00
             164.00,484.00 132.00,484.00 132.00,484.00
             132.00,484.00 132.00,516.00 132.00,516.00
             132.00,516.00 100.00,516.00 100.00,516.00
             100.00,516.00 100.00,644.00 100.00,644.00
             100.00,644.00 132.00,644.00 132.00,644.00
             132.00,644.00 132.00,516.00 132.00,516.00
             132.00,516.00 164.00,516.00 164.00,516.00
             164.00,516.00 164.00,644.00 164.00,644.00
             164.00,644.00 196.00,644.00 196.00,644.00
             196.00,644.00 196.00,548.00 196.00,548.00
             196.00,548.00 228.00,548.00 228.00,548.00
             228.00,548.00 228.00,516.00 228.00,516.00
             228.00,516.00 164.00,516.00 164.00,516.00
             164.00,516.00 164.00,484.00 164.00,484.00
             164.00,484.00 260.00,484.00 260.00,484.00
             260.00,484.00 260.00,516.00 260.00,516.00
             260.00,516.00 356.00,516.00 356.00,516.00
             356.00,516.00 356.00,452.00 356.00,452.00
             356.00,452.00 324.00,452.00 324.00,452.00
             324.00,452.00 324.00,420.00 324.00,420.00
             324.00,420.00 388.00,420.00 388.00,420.00
             388.00,420.00 388.00,516.00 388.00,516.00
             388.00,516.00 420.00,516.00 420.00,516.00
             420.00,516.00 420.00,548.00 420.00,548.00
             420.00,548.00 388.00,548.00 388.00,548.00
             388.00,548.00 388.00,580.00 388.00,580.00
             388.00,580.00 356.00,580.00 356.00,580.00
             356.00,580.00 356.00,612.00 356.00,612.00
             356.00,612.00 292.00,612.00 292.00,612.00
             292.00,612.00 292.00,580.00 292.00,580.00
             292.00,580.00 324.00,580.00 324.00,580.00
             324.00,580.00 324.00,548.00 324.00,548.00
             324.00,548.00 260.00,548.00 260.00,548.00
             260.00,548.00 260.00,580.00 260.00,580.00
             260.00,580.00 228.00,580.00 228.00,580.00
             228.00,580.00 228.00,612.00 228.00,612.00
             228.00,612.00 292.00,612.00 292.00,612.00
             292.00,612.00 292.00,644.00 292.00,644.00
             292.00,644.00 356.00,644.00 356.00,644.00
             356.00,644.00 356.00,708.00 356.00,708.00
             356.00,708.00 420.00,708.00 420.00,708.00
             420.00,708.00 420.00,868.00 420.00,868.00
             420.00,868.00 452.00,868.00 452.00,868.00
             452.00,868.00 452.00,772.00 452.00,772.00
             452.00,772.00 484.00,772.00 484.00,772.00
             484.00,772.00 484.00,900.00 484.00,900.00
             484.00,900.00 548.00,900.00 548.00,900.00
             548.00,900.00 548.00,836.00 548.00,836.00
             548.00,836.00 580.00,836.00 580.00,836.00
             580.00,836.00 580.00,804.00 580.00,804.00
             580.00,804.00 644.00,804.00 644.00,804.00
             644.00,804.00 644.00,772.00 644.00,772.00
             644.00,772.00 676.00,772.00 676.00,772.00
             676.00,772.00 676.00,804.00 676.00,804.00
             676.00,804.00 708.00,804.00 708.00,804.00
             708.00,804.00 708.00,772.00 708.00,772.00
             708.00,772.00 740.00,772.00 740.00,772.00
             740.00,772.00 740.00,836.00 740.00,836.00
             740.00,836.00 612.00,836.00 612.00,836.00
             612.00,836.00 612.00,868.00 612.00,868.00
             612.00,868.00 580.00,868.00 580.00,868.00
             580.00,868.00 580.00,900.00 580.00,900.00
             580.00,900.00 612.00,900.00 612.00,900.00
             612.00,900.00 612.00,868.00 612.00,868.00
             612.00,868.00 804.00,868.00 804.00,868.00
             804.00,868.00 804.00,900.00 804.00,900.00
             804.00,900.00 900.00,900.00 900.00,900.00
             900.00,900.00 900.00,868.00 900.00,868.00
             900.00,868.00 868.00,868.00 868.00,868.00
             868.00,868.00 868.00,836.00 868.00,836.00
             868.00,836.00 900.00,836.00 900.00,836.00
             900.00,836.00 900.00,772.00 900.00,772.00
             900.00,772.00 836.00,772.00 836.00,772.00
             836.00,772.00 836.00,804.00 836.00,804.00
             836.00,804.00 804.00,804.00 804.00,804.00
             804.00,804.00 804.00,836.00 804.00,836.00
             804.00,836.00 772.00,836.00 772.00,836.00
             772.00,836.00 772.00,772.00 772.00,772.00
             772.00,772.00 804.00,772.00 804.00,772.00
             804.00,772.00 804.00,708.00 804.00,708.00
             804.00,708.00 900.00,708.00 900.00,708.00
             900.00,708.00 900.00,548.00 900.00,548.00
             900.00,548.00 804.00,548.00 804.00,548.00
             804.00,548.00 804.00,580.00 804.00,580.00
             804.00,580.00 836.00,580.00 836.00,580.00
             836.00,580.00 836.00,612.00 836.00,612.00
             836.00,612.00 868.00,612.00 868.00,612.00
             868.00,612.00 868.00,676.00 868.00,676.00
             868.00,676.00 804.00,676.00 804.00,676.00
             804.00,676.00 804.00,708.00 804.00,708.00
             804.00,708.00 772.00,708.00 772.00,708.00
             772.00,708.00 772.00,644.00 772.00,644.00
             772.00,644.00 804.00,644.00 804.00,644.00
             804.00,644.00 804.00,612.00 804.00,612.00
             804.00,612.00 676.00,612.00 676.00,612.00
             676.00,612.00 676.00,580.00 676.00,580.00
             676.00,580.00 708.00,580.00 708.00,580.00
             708.00,580.00 708.00,548.00 708.00,548.00
             708.00,548.00 740.00,548.00 740.00,548.00
             740.00,548.00 740.00,580.00 740.00,580.00
             740.00,580.00 772.00,580.00 772.00,580.00
             772.00,580.00 772.00,516.00 772.00,516.00
             772.00,516.00 804.00,516.00 804.00,516.00
             804.00,516.00 804.00,484.00 804.00,484.00
             804.00,484.00 676.00,484.00 676.00,484.00
             676.00,484.00 676.00,452.00 676.00,452.00
             676.00,452.00 708.00,452.00 708.00,452.00
             708.00,452.00 708.00,420.00 708.00,420.00
             708.00,420.00 740.00,420.00 740.00,420.00
             740.00,420.00 740.00,452.00 740.00,452.00
             740.00,452.00 772.00,452.00 772.00,452.00
             772.00,452.00 772.00,388.00 772.00,388.00
             772.00,388.00 804.00,388.00 804.00,388.00
             804.00,388.00 804.00,356.00 804.00,356.00
             804.00,356.00 772.00,356.00 772.00,356.00
             772.00,356.00 772.00,388.00 772.00,388.00
             772.00,388.00 740.00,388.00 740.00,388.00
             740.00,388.00 740.00,356.00 740.00,356.00
             740.00,356.00 708.00,356.00 708.00,356.00
             708.00,356.00 708.00,420.00 708.00,420.00
             708.00,420.00 676.00,420.00 676.00,420.00
             676.00,420.00 676.00,356.00 676.00,356.00
             676.00,356.00 644.00,356.00 644.00,356.00
             644.00,356.00 644.00,292.00 644.00,292.00
             644.00,292.00 612.00,292.00 612.00,292.00
             612.00,292.00 612.00,260.00 612.00,260.00
             612.00,260.00 644.00,260.00 644.00,260.00
             644.00,260.00 644.00,196.00 644.00,196.00
             644.00,196.00 580.00,196.00 580.00,196.00
             580.00,196.00 580.00,260.00 580.00,260.00
             580.00,260.00 516.00,260.00 516.00,260.00
             516.00,260.00 516.00,228.00 516.00,228.00
             516.00,228.00 548.00,228.00 548.00,228.00
             548.00,228.00 548.00,196.00 548.00,196.00
             548.00,196.00 516.00,196.00 516.00,196.00
             516.00,196.00 516.00,228.00 516.00,228.00
             516.00,228.00 484.00,228.00 484.00,228.00
             484.00,228.00 484.00,164.00 484.00,164.00
             484.00,164.00 580.00,164.00 580.00,164.00
             580.00,164.00 580.00,100.00 580.00,100.00
             580.00,100.00 548.00,100.00 548.00,100.00
             548.00,100.00 548.00,132.00 548.00,132.00
             548.00,132.00 452.00,132.00 452.00,132.00
             452.00,132.00 452.00,164.00 452.00,164.00
             452.00,164.00 420.00,164.00 420.00,164.00
             420.00,164.00 420.00,100.00 420.00,100.00
             420.00,100.00 388.00,100.00 388.00,100.00 Z
           M 612.00,100.00
           C 612.00,100.00 612.00,132.00 612.00,132.00
             612.00,132.00 644.00,132.00 644.00,132.00
             644.00,132.00 644.00,100.00 644.00,100.00
             644.00,100.00 612.00,100.00 612.00,100.00 Z
           M 682.02,100.57
           C 676.17,103.02 676.07,106.14 676.00,112.00
             676.00,112.00 676.00,151.00 676.00,151.00
             676.00,151.00 676.00,310.00 676.00,310.00
             676.01,313.70 675.68,318.66 678.51,321.49
             681.16,324.14 685.52,323.98 689.00,324.00
             689.00,324.00 725.00,324.00 725.00,324.00
             725.00,324.00 886.00,324.00 886.00,324.00
             889.70,323.99 894.66,324.32 897.49,321.49
             900.14,318.84 899.98,314.48 900.00,311.00
             900.00,311.00 900.00,275.00 900.00,275.00
             900.00,275.00 900.00,114.00 900.00,114.00
             899.99,110.30 900.32,105.34 897.49,102.51
             894.84,99.86 890.48,100.02 887.00,100.00
             887.00,100.00 850.00,100.00 850.00,100.00
             850.00,100.00 738.00,100.00 738.00,100.00
             738.00,100.00 702.00,100.00 702.00,100.00
             696.15,100.00 687.51,99.57 682.02,100.57 Z
           M 134.31,132.60
           C 138.97,131.47 146.94,132.00 152.00,132.00
             152.00,132.00 183.00,132.00 183.00,132.00
             183.00,132.00 283.00,132.00 283.00,132.00
             285.30,132.00 289.41,131.62 290.98,133.60
             292.23,135.19 292.00,139.01 292.00,141.00
             292.00,141.00 292.00,167.00 292.00,167.00
             292.00,167.00 292.00,283.00 292.00,283.00
             292.00,285.30 292.38,289.41 290.40,290.98
             288.81,292.23 284.99,292.00 283.00,292.00
             283.00,292.00 257.00,292.00 257.00,292.00
             257.00,292.00 141.00,292.00 141.00,292.00
             139.01,292.00 135.19,292.23 133.60,290.98
             131.90,289.63 132.04,286.95 132.00,285.00
             132.00,285.00 132.00,268.00 132.00,268.00
             132.00,268.00 132.00,193.00 132.00,193.00
             132.00,193.00 132.00,149.00 132.00,149.00
             132.00,144.31 130.60,135.73 134.31,132.60 Z
           M 710.31,132.60
           C 714.97,131.47 722.94,132.00 728.00,132.00
             728.00,132.00 759.00,132.00 759.00,132.00
             759.00,132.00 859.00,132.00 859.00,132.00
             861.30,132.00 865.41,131.62 866.98,133.60
             868.23,135.19 868.00,139.01 868.00,141.00
             868.00,141.00 868.00,167.00 868.00,167.00
             868.00,167.00 868.00,283.00 868.00,283.00
             868.00,285.30 868.38,289.41 866.40,290.98
             864.81,292.23 860.99,292.00 859.00,292.00
             859.00,292.00 833.00,292.00 833.00,292.00
             833.00,292.00 717.00,292.00 717.00,292.00
             715.01,292.00 711.19,292.23 709.60,290.98
             707.90,289.63 708.04,286.95 708.00,285.00
             708.00,285.00 708.00,268.00 708.00,268.00
             708.00,268.00 708.00,193.00 708.00,193.00
             708.00,193.00 708.00,149.00 708.00,149.00
             708.00,144.31 706.60,135.73 710.31,132.60 Z
           M 170.02,164.57
           C 163.38,167.36 164.01,171.65 164.00,178.00
             164.00,178.00 164.00,246.00 164.00,246.00
             164.02,257.15 165.28,259.94 177.00,260.00
             177.00,260.00 246.00,260.00 246.00,260.00
             257.15,259.98 259.94,258.72 260.00,247.00
             260.00,247.00 260.00,178.00 260.00,178.00
             259.99,171.27 260.29,165.34 252.00,164.06
             252.00,164.06 246.00,164.06 246.00,164.06
             246.00,164.06 197.00,164.06 197.00,164.06
             197.00,164.06 170.02,164.57 170.02,164.57 Z
           M 746.02,164.57
           C 739.38,167.36 740.01,171.65 740.00,178.00
             740.00,178.00 740.00,246.00 740.00,246.00
             740.02,257.15 741.28,259.94 753.00,260.00
             753.00,260.00 822.00,260.00 822.00,260.00
             833.15,259.98 835.94,258.72 836.00,247.00
             836.00,247.00 836.00,178.00 836.00,178.00
             835.98,165.86 834.14,164.02 822.00,164.00
             822.00,164.00 773.00,164.00 773.00,164.00
             773.00,164.00 746.02,164.57 746.02,164.57 Z
           M 452.00,196.00
           C 452.00,196.00 452.00,228.00 452.00,228.00
             452.00,228.00 420.00,228.00 420.00,228.00
             420.00,228.00 420.00,196.00 420.00,196.00
             420.00,196.00 452.00,196.00 452.00,196.00 Z
           M 356.00,260.00
           C 356.00,260.00 356.00,324.00 356.00,324.00
             356.00,324.00 388.00,324.00 388.00,324.00
             388.00,324.00 388.00,260.00 388.00,260.00
             388.00,260.00 356.00,260.00 356.00,260.00 Z
           M 548.00,292.00
           C 548.00,292.00 548.00,324.00 548.00,324.00
             548.00,324.00 580.00,324.00 580.00,324.00
             580.00,324.00 580.00,292.00 580.00,292.00
             580.00,292.00 612.00,292.00 612.00,292.00
             612.00,292.00 612.00,356.00 612.00,356.00
             612.00,356.00 516.00,356.00 516.00,356.00
             516.00,356.00 516.00,292.00 516.00,292.00
             516.00,292.00 548.00,292.00 548.00,292.00 Z
           M 644.00,356.00
           C 644.00,356.00 644.00,388.00 644.00,388.00
             644.00,388.00 612.00,388.00 612.00,388.00
             612.00,388.00 612.00,356.00 612.00,356.00
             612.00,356.00 644.00,356.00 644.00,356.00 Z
           M 836.00,356.00
           C 836.00,356.00 836.00,388.00 836.00,388.00
             836.00,388.00 868.00,388.00 868.00,388.00
             868.00,388.00 868.00,420.00 868.00,420.00
             868.00,420.00 900.00,420.00 900.00,420.00
             900.00,420.00 900.00,388.00 900.00,388.00
             900.00,388.00 868.00,388.00 868.00,388.00
             868.00,388.00 868.00,356.00 868.00,356.00
             868.00,356.00 836.00,356.00 836.00,356.00 Z
           M 260.00,388.00
           C 260.00,388.00 260.00,452.00 260.00,452.00
             260.00,452.00 228.00,452.00 228.00,452.00
             228.00,452.00 228.00,420.00 228.00,420.00
             228.00,420.00 196.00,420.00 196.00,420.00
             196.00,420.00 196.00,452.00 196.00,452.00
             196.00,452.00 164.00,452.00 164.00,452.00
             164.00,452.00 164.00,420.00 164.00,420.00
             164.00,420.00 132.00,420.00 132.00,420.00
             132.00,420.00 132.00,388.00 132.00,388.00
             132.00,388.00 260.00,388.00 260.00,388.00 Z
           M 324.00,388.00
           C 324.00,388.00 324.00,420.00 324.00,420.00
             324.00,420.00 292.00,420.00 292.00,420.00
             292.00,420.00 292.00,388.00 292.00,388.00
             292.00,388.00 324.00,388.00 324.00,388.00 Z
           M 644.00,420.00
           C 644.00,420.00 644.00,452.00 644.00,452.00
             644.00,452.00 612.00,452.00 612.00,452.00
             612.00,452.00 612.00,420.00 612.00,420.00
             612.00,420.00 644.00,420.00 644.00,420.00 Z
           M 804.00,420.00
           C 804.00,420.00 804.00,452.00 804.00,452.00
             804.00,452.00 836.00,452.00 836.00,452.00
             836.00,452.00 836.00,420.00 836.00,420.00
             836.00,420.00 804.00,420.00 804.00,420.00 Z
           M 324.00,452.00
           C 324.00,452.00 324.00,484.00 324.00,484.00
             324.00,484.00 260.00,484.00 260.00,484.00
             260.00,484.00 260.00,452.00 260.00,452.00
             260.00,452.00 324.00,452.00 324.00,452.00 Z
           M 516.00,452.00
           C 516.00,452.00 516.00,516.00 516.00,516.00
             516.00,516.00 484.00,516.00 484.00,516.00
             484.00,516.00 484.00,452.00 484.00,452.00
             484.00,452.00 516.00,452.00 516.00,452.00 Z
           M 612.00,452.00
           C 612.00,452.00 612.00,484.00 612.00,484.00
             612.00,484.00 548.00,484.00 548.00,484.00
             548.00,484.00 548.00,452.00 548.00,452.00
             548.00,452.00 612.00,452.00 612.00,452.00 Z
           M 452.00,484.00
           C 452.00,484.00 452.00,516.00 452.00,516.00
             452.00,516.00 420.00,516.00 420.00,516.00
             420.00,516.00 420.00,484.00 420.00,484.00
             420.00,484.00 452.00,484.00 452.00,484.00 Z
           M 676.00,484.00
           C 676.00,484.00 676.00,516.00 676.00,516.00
             676.00,516.00 612.00,516.00 612.00,516.00
             612.00,516.00 612.00,484.00 612.00,484.00
             612.00,484.00 676.00,484.00 676.00,484.00 Z
           M 836.00,484.00
           C 836.00,484.00 836.00,516.00 836.00,516.00
             836.00,516.00 900.00,516.00 900.00,516.00
             900.00,516.00 900.00,484.00 900.00,484.00
             900.00,484.00 836.00,484.00 836.00,484.00 Z
           M 484.00,516.00
           C 484.00,516.00 484.00,548.00 484.00,548.00
             484.00,548.00 516.00,548.00 516.00,548.00
             516.00,548.00 516.00,516.00 516.00,516.00
             516.00,516.00 548.00,516.00 548.00,516.00
             548.00,516.00 548.00,580.00 548.00,580.00
             548.00,580.00 484.00,580.00 484.00,580.00
             484.00,580.00 484.00,644.00 484.00,644.00
             484.00,644.00 516.00,644.00 516.00,644.00
             516.00,644.00 516.00,612.00 516.00,612.00
             516.00,612.00 548.00,612.00 548.00,612.00
             548.00,612.00 548.00,580.00 548.00,580.00
             548.00,580.00 580.00,580.00 580.00,580.00
             580.00,580.00 580.00,516.00 580.00,516.00
             580.00,516.00 612.00,516.00 612.00,516.00
             612.00,516.00 612.00,548.00 612.00,548.00
             612.00,548.00 644.00,548.00 644.00,548.00
             644.00,548.00 644.00,612.00 644.00,612.00
             644.00,612.00 580.00,612.00 580.00,612.00
             580.00,612.00 580.00,644.00 580.00,644.00
             580.00,644.00 612.00,644.00 612.00,644.00
             612.00,644.00 612.00,772.00 612.00,772.00
             612.00,772.00 580.00,772.00 580.00,772.00
             580.00,772.00 580.00,804.00 580.00,804.00
             580.00,804.00 548.00,804.00 548.00,804.00
             548.00,804.00 548.00,836.00 548.00,836.00
             548.00,836.00 516.00,836.00 516.00,836.00
             516.00,836.00 516.00,740.00 516.00,740.00
             516.00,740.00 484.00,740.00 484.00,740.00
             484.00,740.00 484.00,708.00 484.00,708.00
             484.00,708.00 516.00,708.00 516.00,708.00
             516.00,708.00 516.00,676.00 516.00,676.00
             516.00,676.00 452.00,676.00 452.00,676.00
             452.00,676.00 452.00,644.00 452.00,644.00
             452.00,644.00 388.00,644.00 388.00,644.00
             388.00,644.00 388.00,612.00 388.00,612.00
             388.00,612.00 420.00,612.00 420.00,612.00
             420.00,612.00 420.00,580.00 420.00,580.00
             420.00,580.00 452.00,580.00 452.00,580.00
             452.00,580.00 452.00,516.00 452.00,516.00
             452.00,516.00 484.00,516.00 484.00,516.00 Z
           M 740.00,644.00
           C 740.00,644.00 740.00,740.00 740.00,740.00
             740.00,740.00 644.00,740.00 644.00,740.00
             644.00,740.00 644.00,644.00 644.00,644.00
             644.00,644.00 740.00,644.00 740.00,644.00 Z
           M 106.02,676.57
           C 100.17,679.02 100.07,682.14 100.00,688.00
             100.00,688.00 100.00,727.00 100.00,727.00
             100.00,727.00 100.00,886.00 100.00,886.00
             100.01,889.70 99.68,894.66 102.51,897.49
             105.16,900.14 109.52,899.98 113.00,900.00
             113.00,900.00 149.00,900.00 149.00,900.00
             149.00,900.00 310.00,900.00 310.00,900.00
             313.70,899.99 318.66,900.32 321.49,897.49
             324.14,894.84 323.98,890.48 324.00,887.00
             324.00,887.00 324.00,851.00 324.00,851.00
             324.00,851.00 324.00,690.00 324.00,690.00
             323.99,686.30 324.32,681.34 321.49,678.51
             318.84,675.86 314.48,676.02 311.00,676.00
             311.00,676.00 274.00,676.00 274.00,676.00
             274.00,676.00 162.00,676.00 162.00,676.00
             162.00,676.00 126.00,676.00 126.00,676.00
             120.15,676.00 111.51,675.57 106.02,676.57 Z
           M 548.00,676.00
           C 548.00,676.00 548.00,740.00 548.00,740.00
             548.00,740.00 580.00,740.00 580.00,740.00
             580.00,740.00 580.00,676.00 580.00,676.00
             580.00,676.00 548.00,676.00 548.00,676.00 Z
           M 676.00,676.00
           C 676.00,676.00 676.00,708.00 676.00,708.00
             676.00,708.00 708.00,708.00 708.00,708.00
             708.00,708.00 708.00,676.00 708.00,676.00
             708.00,676.00 676.00,676.00 676.00,676.00 Z
           M 134.31,708.60
           C 138.97,707.47 146.94,708.00 152.00,708.00
             152.00,708.00 183.00,708.00 183.00,708.00
             183.00,708.00 283.00,708.00 283.00,708.00
             285.30,708.00 289.41,707.62 290.98,709.60
             292.23,711.19 292.00,715.01 292.00,717.00
             292.00,717.00 292.00,743.00 292.00,743.00
             292.00,743.00 292.00,859.00 292.00,859.00
             292.00,861.30 292.38,865.41 290.40,866.98
             288.81,868.23 284.99,868.00 283.00,868.00
             283.00,868.00 257.00,868.00 257.00,868.00
             257.00,868.00 141.00,868.00 141.00,868.00
             139.01,868.00 135.19,868.23 133.60,866.98
             131.90,865.63 132.04,862.95 132.00,861.00
             132.00,861.00 132.00,844.00 132.00,844.00
             132.00,844.00 132.00,769.00 132.00,769.00
             132.00,769.00 132.00,725.00 132.00,725.00
             132.00,720.31 130.60,711.73 134.31,708.60 Z
           M 170.02,740.57
           C 163.38,743.36 164.01,747.65 164.00,754.00
             164.00,754.00 164.00,822.00 164.00,822.00
             164.02,833.15 165.28,835.94 177.00,836.00
             177.00,836.00 246.00,836.00 246.00,836.00
             257.15,835.98 259.94,834.72 260.00,823.00
             260.00,823.00 260.00,754.00 260.00,754.00
             259.98,742.02 257.98,740.02 246.00,740.00
             246.00,740.00 197.00,740.00 197.00,740.00
             197.00,740.00 170.02,740.57 170.02,740.57 Z
           M 356.00,740.00
           C 356.00,740.00 356.00,900.00 356.00,900.00
             356.00,900.00 388.00,900.00 388.00,900.00
             388.00,900.00 388.00,740.00 388.00,740.00
             388.00,740.00 356.00,740.00 356.00,740.00 Z
           M 868.00,804.00
           C 868.00,804.00 868.00,836.00 868.00,836.00
             868.00,836.00 836.00,836.00 836.00,836.00
             836.00,836.00 836.00,804.00 836.00,804.00
             836.00,804.00 868.00,804.00 868.00,804.00 Z
           M 836.00,836.00
           C 836.00,836.00 836.00,868.00 836.00,868.00
             836.00,868.00 804.00,868.00 804.00,868.00
             804.00,868.00 804.00,836.00 804.00,836.00
             804.00,836.00 836.00,836.00 836.00,836.00 Z" />
</svg>
